<?xml version="1.0" encoding="UTF-8" standalone="no"?>
<!DOCTYPE svg PUBLIC "-//W3C//DTD SVG 1.1//EN"
 "http://www.w3.org/Graphics/SVG/1.1/DTD/svg11.dtd">
<!-- Generated by graphviz version 15.0.0 (20260523.1842)
 -->
<!-- Title: sekiro Pages: 1 -->
<svg width="1403pt" height="267pt"
 viewBox="0.00 0.00 1403.00 267.00" xmlns="http://www.w3.org/2000/svg" xmlns:xlink="http://www.w3.org/1999/xlink">
<g id="graph0" class="graph" transform="scale(1 1) rotate(0) translate(4 263)">
<title>sekiro</title>
<polygon fill="white" stroke="none" points="-4,4 -4,-263 1399.46,-263 1399.46,4 -4,4"/>
<!-- prologue_genichiro -->
<g id="node1" class="node">
<title>prologue_genichiro</title>
<ellipse fill="#c8e6c9" stroke="#2e7d32" cx="58.33" cy="-149" rx="58.33" ry="18"/>
<text xml:space="preserve" text-anchor="middle" x="58.33" y="-145.5" font-family="Helvetica,sans-Serif" font-size="10.00">prologue_genichiro</text>
</g>
<!-- lose_arm -->
<g id="node2" class="node">
<title>lose_arm</title>
<ellipse fill="#c8e6c9" stroke="#2e7d32" cx="186.18" cy="-149" rx="33.52" ry="18"/>
<text xml:space="preserve" text-anchor="middle" x="186.18" y="-145.5" font-family="Helvetica,sans-Serif" font-size="10.00">lose_arm</text>
</g>
<!-- prologue_genichiro&#45;&gt;lose_arm -->
<g id="edge1" class="edge">
<title>prologue_genichiro&#45;&gt;lose_arm</title>
<path fill="none" stroke="black" d="M117.1,-149C125.17,-149 133.35,-149 141.11,-149"/>
<polygon fill="black" stroke="black" points="140.98,-152.5 150.98,-149 140.98,-145.5 140.98,-152.5"/>
</g>
<!-- shinobi_prosthetic -->
<g id="node3" class="node">
<title>shinobi_prosthetic</title>
<polygon fill="#c8e6c9" stroke="#2e7d32" points="344.46,-221 255.71,-221 255.71,-185 350.46,-185 350.46,-215 344.46,-221"/>
<polyline fill="none" stroke="#2e7d32" points="344.46,-221 344.46,-215"/>
<polyline fill="none" stroke="#2e7d32" points="350.46,-215 344.46,-215"/>
<text xml:space="preserve" text-anchor="middle" x="303.08" y="-199.5" font-family="Helvetica,sans-Serif" font-size="10.00">shinobi_prosthetic</text>
</g>
<!-- lose_arm&#45;&gt;shinobi_prosthetic -->
<g id="edge2" class="edge">
<title>lose_arm&#45;&gt;shinobi_prosthetic</title>
<path fill="none" stroke="black" d="M212.12,-160.72C224.01,-166.31 238.68,-173.2 252.7,-179.79"/>
<polygon fill="black" stroke="black" points="250.83,-182.78 261.37,-183.87 253.81,-176.45 250.83,-182.78"/>
</g>
<!-- kusabimaru -->
<g id="node4" class="node">
<title>kusabimaru</title>
<polygon fill="#c8e6c9" stroke="#2e7d32" points="330.21,-167 269.96,-167 269.96,-131 336.21,-131 336.21,-161 330.21,-167"/>
<polyline fill="none" stroke="#2e7d32" points="330.21,-167 330.21,-161"/>
<polyline fill="none" stroke="#2e7d32" points="336.21,-161 330.21,-161"/>
<text xml:space="preserve" text-anchor="middle" x="303.08" y="-145.5" font-family="Helvetica,sans-Serif" font-size="10.00">kusabimaru</text>
</g>
<!-- lose_arm&#45;&gt;kusabimaru -->
<g id="edge3" class="edge">
<title>lose_arm&#45;&gt;kusabimaru</title>
<path fill="none" stroke="black" d="M220.11,-149C231.99,-149 245.59,-149 258.26,-149"/>
<polygon fill="black" stroke="black" points="258.04,-152.5 268.04,-149 258.04,-145.5 258.04,-152.5"/>
</g>
<!-- ashina_outskirts -->
<g id="node5" class="node">
<title>ashina_outskirts</title>
<path fill="#c8e6c9" stroke="#2e7d32" d="M334.71,-113C334.71,-113 271.46,-113 271.46,-113 265.46,-113 259.46,-107 259.46,-101 259.46,-101 259.46,-89 259.46,-89 259.46,-83 265.46,-77 271.46,-77 271.46,-77 334.71,-77 334.71,-77 340.71,-77 346.71,-83 346.71,-89 346.71,-89 346.71,-101 346.71,-101 346.71,-107 340.71,-113 334.71,-113"/>
<text xml:space="preserve" text-anchor="middle" x="303.08" y="-91.5" font-family="Helvetica,sans-Serif" font-size="10.00">ashina_outskirts</text>
</g>
<!-- lose_arm&#45;&gt;ashina_outskirts -->
<g id="edge4" class="edge">
<title>lose_arm&#45;&gt;ashina_outskirts</title>
<path fill="none" stroke="black" d="M212.12,-137.28C224.01,-131.69 238.68,-124.8 252.7,-118.21"/>
<polygon fill="black" stroke="black" points="253.81,-121.55 261.37,-114.13 250.83,-115.22 253.81,-121.55"/>
</g>
<!-- chained_ogre -->
<g id="node6" class="node">
<title>chained_ogre</title>
<path fill="#c8e6c9" stroke="#2e7d32" d="M482.46,-161.51C482.46,-161.51 482.46,-166.49 482.46,-166.49 482.46,-168.97 480.14,-172.33 477.81,-173.2 477.81,-173.2 459,-180.25 459,-180.25 456.67,-181.13 451.86,-182 449.37,-182 449.37,-182 419.55,-182 419.55,-182 417.06,-182 412.25,-181.13 409.92,-180.25 409.92,-180.25 391.11,-173.2 391.11,-173.2 388.79,-172.33 386.46,-168.97 386.46,-166.49 386.46,-166.49 386.46,-161.51 386.46,-161.51 386.46,-159.03 388.79,-155.67 391.11,-154.8 391.11,-154.8 409.92,-147.75 409.92,-147.75 412.25,-146.87 417.06,-146 419.55,-146 419.55,-146 449.37,-146 449.37,-146 451.86,-146 456.67,-146.87 459,-147.75 459,-147.75 477.81,-154.8 477.81,-154.8 480.14,-155.67 482.46,-159.03 482.46,-161.51"/>
<text xml:space="preserve" text-anchor="middle" x="434.46" y="-160.5" font-family="Helvetica,sans-Serif" font-size="10.00">chained_ogre</text>
</g>
<!-- ashina_outskirts&#45;&gt;chained_ogre -->
<g id="edge5" class="edge">
<title>ashina_outskirts&#45;&gt;chained_ogre</title>
<path fill="none" stroke="black" d="M338.75,-113.49C356.27,-122.83 377.57,-134.19 395.52,-143.77"/>
<polygon fill="black" stroke="black" points="393.85,-146.84 404.32,-148.46 397.14,-140.66 393.85,-146.84"/>
</g>
<!-- gyoubu_oniwa -->
<g id="node7" class="node">
<title>gyoubu_oniwa</title>
<path fill="#c8e6c9" stroke="#2e7d32" d="M634.97,-138.51C634.97,-138.51 634.97,-143.49 634.97,-143.49 634.97,-145.97 632.63,-149.28 630.29,-150.11 630.29,-150.11 609.82,-157.34 609.82,-157.34 607.48,-158.17 602.65,-159 600.17,-159 600.17,-159 567.91,-159 567.91,-159 565.43,-159 560.6,-158.17 558.26,-157.34 558.26,-157.34 537.8,-150.11 537.8,-150.11 535.45,-149.28 533.11,-145.97 533.11,-143.49 533.11,-143.49 533.11,-138.51 533.11,-138.51 533.11,-136.03 535.45,-132.72 537.8,-131.89 537.8,-131.89 558.26,-124.66 558.26,-124.66 560.6,-123.83 565.43,-123 567.91,-123 567.91,-123 600.17,-123 600.17,-123 602.65,-123 607.48,-123.83 609.82,-124.66 609.82,-124.66 630.29,-131.89 630.29,-131.89 632.63,-132.72 634.97,-136.03 634.97,-138.51"/>
<text xml:space="preserve" text-anchor="middle" x="584.04" y="-137.5" font-family="Helvetica,sans-Serif" font-size="10.00">gyoubu_oniwa</text>
</g>
<!-- ashina_outskirts&#45;&gt;gyoubu_oniwa -->
<g id="edge6" class="edge">
<title>ashina_outskirts&#45;&gt;gyoubu_oniwa</title>
<path fill="none" stroke="black" d="M347.06,-102.09C394.05,-109.83 469.69,-122.31 522.64,-131.04"/>
<polygon fill="black" stroke="black" points="521.97,-134.48 532.41,-132.65 523.11,-127.57 521.97,-134.48"/>
</g>
<!-- headless -->
<g id="node8" class="node">
<title>headless</title>
<path fill="#ffe0b2" stroke="#ef6c00" d="M467.82,-69.51C467.82,-69.51 467.82,-74.49 467.82,-74.49 467.82,-76.97 465.63,-80.64 463.44,-81.82 463.44,-81.82 452.65,-87.64 452.65,-87.64 450.47,-88.82 445.79,-90 443.31,-90 443.31,-90 425.61,-90 425.61,-90 423.13,-90 418.46,-88.82 416.27,-87.64 416.27,-87.64 405.48,-81.82 405.48,-81.82 403.29,-80.64 401.1,-76.97 401.1,-74.49 401.1,-74.49 401.1,-69.51 401.1,-69.51 401.1,-67.03 403.29,-63.36 405.48,-62.18 405.48,-62.18 416.27,-56.36 416.27,-56.36 418.46,-55.18 423.13,-54 425.61,-54 425.61,-54 443.31,-54 443.31,-54 445.79,-54 450.47,-55.18 452.65,-56.36 452.65,-56.36 463.44,-62.18 463.44,-62.18 465.63,-63.36 467.82,-67.03 467.82,-69.51"/>
<text xml:space="preserve" text-anchor="middle" x="434.46" y="-68.5" font-family="Helvetica,sans-Serif" font-size="10.00">? (boss)</text>
</g>
<!-- ashina_outskirts&#45;&gt;headless -->
<g id="edge7" class="edge">
<title>ashina_outskirts&#45;&gt;headless</title>
<path fill="none" stroke="black" d="M347.16,-87.34C360.83,-84.91 375.95,-82.22 389.67,-79.78"/>
<polygon fill="black" stroke="black" points="390.08,-83.27 399.31,-78.07 388.85,-76.38 390.08,-83.27"/>
</g>
<!-- hirata_estate -->
<g id="node9" class="node">
<title>hirata_estate</title>
<path fill="#c8e6c9" stroke="#2e7d32" d="M458.59,-36C458.59,-36 410.34,-36 410.34,-36 404.34,-36 398.34,-30 398.34,-24 398.34,-24 398.34,-12 398.34,-12 398.34,-6 404.34,0 410.34,0 410.34,0 458.59,0 458.59,0 464.59,0 470.59,-6 470.59,-12 470.59,-12 470.59,-24 470.59,-24 470.59,-30 464.59,-36 458.59,-36"/>
<text xml:space="preserve" text-anchor="middle" x="434.46" y="-14.5" font-family="Helvetica,sans-Serif" font-size="10.00">hirata_estate</text>
</g>
<!-- ashina_outskirts&#45;&gt;hirata_estate -->
<g id="edge8" class="edge">
<title>ashina_outskirts&#45;&gt;hirata_estate</title>
<path fill="none" stroke="black" d="M334.11,-76.54C349.67,-67.03 369.03,-55.29 386.46,-45 388.07,-44.05 389.72,-43.08 391.39,-42.1"/>
<polygon fill="black" stroke="black" points="392.85,-45.3 399.73,-37.25 389.33,-39.25 392.85,-45.3"/>
</g>
<!-- chained_ogre&#45;&gt;gyoubu_oniwa -->
<g id="edge19" class="edge">
<title>chained_ogre&#45;&gt;gyoubu_oniwa</title>
<path fill="none" stroke="#888888" stroke-dasharray="5,2" d="M482.56,-156.66C494.96,-154.73 508.52,-152.61 521.55,-150.58"/>
<polygon fill="#888888" stroke="#888888" points="521.98,-154.06 531.33,-149.06 520.91,-147.14 521.98,-154.06"/>
</g>
<!-- ashina_castle -->
<g id="node12" class="node">
<title>ashina_castle</title>
<path fill="#c8e6c9" stroke="#2e7d32" d="M760.11,-159C760.11,-159 708.11,-159 708.11,-159 702.11,-159 696.11,-153 696.11,-147 696.11,-147 696.11,-135 696.11,-135 696.11,-129 702.11,-123 708.11,-123 708.11,-123 760.11,-123 760.11,-123 766.11,-123 772.11,-129 772.11,-135 772.11,-135 772.11,-147 772.11,-147 772.11,-153 766.11,-159 760.11,-159"/>
<text xml:space="preserve" text-anchor="middle" x="734.11" y="-137.5" font-family="Helvetica,sans-Serif" font-size="10.00">ashina_castle</text>
</g>
<!-- gyoubu_oniwa&#45;&gt;ashina_castle -->
<g id="edge11" class="edge">
<title>gyoubu_oniwa&#45;&gt;ashina_castle</title>
<path fill="none" stroke="black" d="M635.17,-141C651.1,-141 668.69,-141 684.51,-141"/>
<polygon fill="black" stroke="black" points="684.16,-144.5 694.16,-141 684.16,-137.5 684.16,-144.5"/>
</g>
<!-- juzou_the_drunkard -->
<g id="node10" class="node">
<title>juzou_the_drunkard</title>
<path fill="#c8e6c9" stroke="#2e7d32" d="M649.62,-38.51C649.62,-38.51 649.62,-43.49 649.62,-43.49 649.62,-45.97 647.22,-49.11 644.82,-49.77 644.82,-49.77 616,-57.68 616,-57.68 613.6,-58.34 608.72,-59 606.23,-59 606.23,-59 561.85,-59 561.85,-59 559.36,-59 554.48,-58.34 552.08,-57.68 552.08,-57.68 523.26,-49.77 523.26,-49.77 520.86,-49.11 518.46,-45.97 518.46,-43.49 518.46,-43.49 518.46,-38.51 518.46,-38.51 518.46,-36.03 520.86,-32.89 523.26,-32.23 523.26,-32.23 552.08,-24.32 552.08,-24.32 554.48,-23.66 559.36,-23 561.85,-23 561.85,-23 606.23,-23 606.23,-23 608.72,-23 613.6,-23.66 616,-24.32 616,-24.32 644.82,-32.23 644.82,-32.23 647.22,-32.89 649.62,-36.03 649.62,-38.51"/>
<text xml:space="preserve" text-anchor="middle" x="584.04" y="-37.5" font-family="Helvetica,sans-Serif" font-size="10.00">juzou_the_drunkard</text>
</g>
<!-- hirata_estate&#45;&gt;juzou_the_drunkard -->
<g id="edge9" class="edge">
<title>hirata_estate&#45;&gt;juzou_the_drunkard</title>
<path fill="none" stroke="black" d="M470.81,-23.51C483.38,-25.47 498.02,-27.75 512.49,-30"/>
<polygon fill="black" stroke="black" points="511.57,-33.4 521.99,-31.49 512.65,-26.49 511.57,-33.4"/>
</g>
<!-- lady_butterfly -->
<g id="node11" class="node">
<title>lady_butterfly</title>
<path fill="#c8e6c9" stroke="#2e7d32" d="M782.6,-15.51C782.6,-15.51 782.6,-20.49 782.6,-20.49 782.6,-22.97 780.27,-26.32 777.94,-27.19 777.94,-27.19 758.85,-34.27 758.85,-34.27 756.52,-35.14 751.71,-36 749.22,-36 749.22,-36 718.99,-36 718.99,-36 716.51,-36 711.69,-35.14 709.36,-34.27 709.36,-34.27 690.28,-27.19 690.28,-27.19 687.95,-26.32 685.62,-22.97 685.62,-20.49 685.62,-20.49 685.62,-15.51 685.62,-15.51 685.62,-13.03 687.95,-9.68 690.28,-8.81 690.28,-8.81 709.36,-1.73 709.36,-1.73 711.69,-0.86 716.51,0 718.99,0 718.99,0 749.22,0 749.22,0 751.71,0 756.52,-0.86 758.85,-1.73 758.85,-1.73 777.94,-8.81 777.94,-8.81 780.27,-9.68 782.6,-13.03 782.6,-15.51"/>
<text xml:space="preserve" text-anchor="middle" x="734.11" y="-14.5" font-family="Helvetica,sans-Serif" font-size="10.00">lady_butterfly</text>
</g>
<!-- hirata_estate&#45;&gt;lady_butterfly -->
<g id="edge10" class="edge">
<title>hirata_estate&#45;&gt;lady_butterfly</title>
<path fill="none" stroke="black" d="M470.99,-15.91C485.68,-15.15 502.89,-14.38 518.46,-14 576.74,-12.6 591.34,-12.6 649.62,-14 657.51,-14.19 665.81,-14.48 674,-14.82"/>
<polygon fill="black" stroke="black" points="673.78,-18.31 683.93,-15.25 674.09,-11.32 673.78,-18.31"/>
</g>
<!-- juzou_the_drunkard&#45;&gt;lady_butterfly -->
<g id="edge20" class="edge">
<title>juzou_the_drunkard&#45;&gt;lady_butterfly</title>
<path fill="none" stroke="#888888" stroke-dasharray="5,2" d="M644.41,-31.78C654.24,-30.25 664.43,-28.67 674.25,-27.14"/>
<polygon fill="#888888" stroke="#888888" points="674.72,-30.61 684.07,-25.62 673.65,-23.69 674.72,-30.61"/>
</g>
<!-- blazing_bull -->
<g id="node13" class="node">
<title>blazing_bull</title>
<path fill="#c8e6c9" stroke="#2e7d32" d="M905.82,-184.51C905.82,-184.51 905.82,-189.49 905.82,-189.49 905.82,-191.97 903.52,-195.4 901.22,-196.35 901.22,-196.35 884.87,-203.1 884.87,-203.1 882.57,-204.05 877.79,-205 875.3,-205 875.3,-205 849.11,-205 849.11,-205 846.63,-205 841.85,-204.05 839.55,-203.1 839.55,-203.1 823.19,-196.35 823.19,-196.35 820.9,-195.4 818.6,-191.97 818.6,-189.49 818.6,-189.49 818.6,-184.51 818.6,-184.51 818.6,-182.03 820.9,-178.6 823.19,-177.65 823.19,-177.65 839.55,-170.9 839.55,-170.9 841.85,-169.95 846.63,-169 849.11,-169 849.11,-169 875.3,-169 875.3,-169 877.79,-169 882.57,-169.95 884.87,-170.9 884.87,-170.9 901.22,-177.65 901.22,-177.65 903.52,-178.6 905.82,-182.03 905.82,-184.51"/>
<text xml:space="preserve" text-anchor="middle" x="862.21" y="-183.5" font-family="Helvetica,sans-Serif" font-size="10.00">blazing_bull</text>
</g>
<!-- ashina_castle&#45;&gt;blazing_bull -->
<g id="edge12" class="edge">
<title>ashina_castle&#45;&gt;blazing_bull</title>
<path fill="none" stroke="black" d="M772.6,-154.68C786.85,-159.88 803.21,-165.84 817.95,-171.22"/>
<polygon fill="black" stroke="black" points="816.34,-174.36 826.93,-174.5 818.73,-167.78 816.34,-174.36"/>
</g>
<!-- genichiro_ashina -->
<g id="node14" class="node">
<title>genichiro_ashina</title>
<path fill="#c8e6c9" stroke="#2e7d32" d="M1057.35,-161.51C1057.35,-161.51 1057.35,-166.49 1057.35,-166.49 1057.35,-168.97 1054.98,-172.2 1052.6,-172.93 1052.6,-172.93 1028.26,-180.52 1028.26,-180.52 1025.88,-181.26 1021.02,-182 1018.54,-182 1018.54,-182 980.63,-182 980.63,-182 978.14,-182 973.28,-181.26 970.91,-180.52 970.91,-180.52 946.56,-172.93 946.56,-172.93 944.19,-172.2 941.82,-168.97 941.82,-166.49 941.82,-166.49 941.82,-161.51 941.82,-161.51 941.82,-159.03 944.19,-155.8 946.56,-155.07 946.56,-155.07 970.91,-147.48 970.91,-147.48 973.28,-146.74 978.14,-146 980.63,-146 980.63,-146 1018.54,-146 1018.54,-146 1021.02,-146 1025.88,-146.74 1028.26,-147.48 1028.26,-147.48 1052.6,-155.07 1052.6,-155.07 1054.98,-155.8 1057.35,-159.03 1057.35,-161.51"/>
<text xml:space="preserve" text-anchor="middle" x="999.58" y="-160.5" font-family="Helvetica,sans-Serif" font-size="10.00">genichiro_ashina</text>
</g>
<!-- ashina_castle&#45;&gt;genichiro_ashina -->
<g id="edge13" class="edge">
<title>ashina_castle&#45;&gt;genichiro_ashina</title>
<path fill="none" stroke="black" d="M772.58,-144.27C813.44,-147.84 879.7,-153.62 929.94,-158.01"/>
<polygon fill="black" stroke="black" points="929.6,-161.49 939.86,-158.87 930.21,-154.52 929.6,-161.49"/>
</g>
<!-- abandoned_dungeon -->
<g id="node16" class="node">
<title>abandoned_dungeon</title>
<path fill="#ffe0b2" stroke="#ef6c00" d="M877.21,-113C877.21,-113 847.21,-113 847.21,-113 841.21,-113 835.21,-107 835.21,-101 835.21,-101 835.21,-89 835.21,-89 835.21,-83 841.21,-77 847.21,-77 847.21,-77 877.21,-77 877.21,-77 883.21,-77 889.21,-83 889.21,-89 889.21,-89 889.21,-101 889.21,-101 889.21,-107 883.21,-113 877.21,-113"/>
<text xml:space="preserve" text-anchor="middle" x="862.21" y="-91.5" font-family="Helvetica,sans-Serif" font-size="10.00">? (area)</text>
</g>
<!-- ashina_castle&#45;&gt;abandoned_dungeon -->
<g id="edge15" class="edge">
<title>ashina_castle&#45;&gt;abandoned_dungeon</title>
<path fill="none" stroke="black" d="M772.6,-127.32C788.88,-121.38 807.9,-114.45 824.13,-108.53"/>
<polygon fill="black" stroke="black" points="825.24,-111.85 833.44,-105.13 822.84,-105.27 825.24,-111.85"/>
</g>
<!-- blazing_bull&#45;&gt;genichiro_ashina -->
<g id="edge21" class="edge">
<title>blazing_bull&#45;&gt;genichiro_ashina</title>
<path fill="none" stroke="#888888" stroke-dasharray="5,2" d="M906.04,-179.72C915.06,-178.19 924.76,-176.54 934.37,-174.91"/>
<polygon fill="#888888" stroke="#888888" points="934.8,-178.39 944.07,-173.26 933.63,-171.49 934.8,-178.39"/>
</g>
<!-- mushin_arts -->
<g id="node15" class="node">
<title>mushin_arts</title>
<path fill="#c8e6c9" stroke="#2e7d32" d="M1203.46,-259C1203.46,-259 1130.33,-259 1130.33,-259 1124.33,-259 1114.91,-254.07 1111.49,-249.14 1111.49,-249.14 1100.19,-232.86 1100.19,-232.86 1096.77,-227.93 1099.35,-223 1105.35,-223 1105.35,-223 1178.48,-223 1178.48,-223 1184.48,-223 1193.9,-227.93 1197.32,-232.86 1197.32,-232.86 1208.62,-249.14 1208.62,-249.14 1212.04,-254.07 1209.46,-259 1203.46,-259"/>
<text xml:space="preserve" text-anchor="middle" x="1154.4" y="-237.5" font-family="Helvetica,sans-Serif" font-size="10.00">mushin_arts</text>
</g>
<!-- genichiro_ashina&#45;&gt;mushin_arts -->
<g id="edge14" class="edge">
<title>genichiro_ashina&#45;&gt;mushin_arts</title>
<path fill="none" stroke="black" d="M1029.55,-180.31C1047.71,-190.35 1071.69,-203.31 1093.35,-214 1095.91,-215.26 1098.53,-216.53 1101.2,-217.8"/>
<polygon fill="black" stroke="black" points="1099.64,-220.94 1110.18,-222.01 1102.6,-214.6 1099.64,-220.94"/>
</g>
<!-- senpou_temple -->
<g id="node17" class="node">
<title>senpou_temple</title>
<path fill="#ffe0b2" stroke="#ef6c00" d="M1169.4,-205C1169.4,-205 1139.4,-205 1139.4,-205 1133.4,-205 1127.4,-199 1127.4,-193 1127.4,-193 1127.4,-181 1127.4,-181 1127.4,-175 1133.4,-169 1139.4,-169 1139.4,-169 1169.4,-169 1169.4,-169 1175.4,-169 1181.4,-175 1181.4,-181 1181.4,-181 1181.4,-193 1181.4,-193 1181.4,-199 1175.4,-205 1169.4,-205"/>
<text xml:space="preserve" text-anchor="middle" x="1154.4" y="-183.5" font-family="Helvetica,sans-Serif" font-size="10.00">? (area)</text>
</g>
<!-- genichiro_ashina&#45;&gt;senpou_temple -->
<g id="edge16" class="edge">
<title>genichiro_ashina&#45;&gt;senpou_temple</title>
<path fill="none" stroke="black" d="M1055.76,-172.3C1075.67,-175.3 1097.68,-178.61 1115.76,-181.33"/>
<polygon fill="black" stroke="black" points="1115.1,-184.77 1125.51,-182.8 1116.14,-177.85 1115.1,-184.77"/>
</g>
<!-- sunken_valley -->
<g id="node18" class="node">
<title>sunken_valley</title>
<path fill="#ffe0b2" stroke="#ef6c00" d="M1293.46,-167C1293.46,-167 1263.46,-167 1263.46,-167 1257.46,-167 1251.46,-161 1251.46,-155 1251.46,-155 1251.46,-143 1251.46,-143 1251.46,-137 1257.46,-131 1263.46,-131 1263.46,-131 1293.46,-131 1293.46,-131 1299.46,-131 1305.46,-137 1305.46,-143 1305.46,-143 1305.46,-155 1305.46,-155 1305.46,-161 1299.46,-167 1293.46,-167"/>
<text xml:space="preserve" text-anchor="middle" x="1278.46" y="-145.5" font-family="Helvetica,sans-Serif" font-size="10.00">? (area)</text>
</g>
<!-- genichiro_ashina&#45;&gt;sunken_valley -->
<g id="edge17" class="edge">
<title>genichiro_ashina&#45;&gt;sunken_valley</title>
<path fill="none" stroke="black" d="M1057.62,-160.91C1112.08,-157.96 1192.62,-153.6 1239.6,-151.05"/>
<polygon fill="black" stroke="black" points="1239.75,-154.55 1249.55,-150.51 1239.37,-147.56 1239.75,-154.55"/>
</g>
<!-- ashina_depths -->
<g id="node19" class="node">
<title>ashina_depths</title>
<path fill="#ffe0b2" stroke="#ef6c00" d="M1383.46,-144C1383.46,-144 1353.46,-144 1353.46,-144 1347.46,-144 1341.46,-138 1341.46,-132 1341.46,-132 1341.46,-120 1341.46,-120 1341.46,-114 1347.46,-108 1353.46,-108 1353.46,-108 1383.46,-108 1383.46,-108 1389.46,-108 1395.46,-114 1395.46,-120 1395.46,-120 1395.46,-132 1395.46,-132 1395.46,-138 1389.46,-144 1383.46,-144"/>
<text xml:space="preserve" text-anchor="middle" x="1368.46" y="-122.5" font-family="Helvetica,sans-Serif" font-size="10.00">? (area)</text>
</g>
<!-- genichiro_ashina&#45;&gt;ashina_depths -->
<g id="edge18" class="edge">
<title>genichiro_ashina&#45;&gt;ashina_depths</title>
<path fill="none" stroke="black" d="M1048.85,-153.47C1099.14,-143.08 1180.39,-127.91 1251.46,-122 1275.38,-120.01 1281.47,-121.23 1305.46,-122 1313.36,-122.25 1321.81,-122.69 1329.85,-123.18"/>
<polygon fill="black" stroke="black" points="1329.51,-126.67 1339.72,-123.83 1329.97,-119.68 1329.51,-126.67"/>
</g>
<!-- senpou_temple&#45;&gt;sunken_valley -->
<g id="edge22" class="edge">
<title>senpou_temple&#45;&gt;sunken_valley</title>
<path fill="none" stroke="#888888" stroke-dasharray="5,2" d="M1181.89,-178.75C1198.92,-173.45 1221.31,-166.48 1240.14,-160.62"/>
<polygon fill="#888888" stroke="#888888" points="1241.08,-163.99 1249.58,-157.68 1238.99,-157.31 1241.08,-163.99"/>
</g>
<!-- sunken_valley&#45;&gt;ashina_depths -->
<g id="edge23" class="edge">
<title>sunken_valley&#45;&gt;ashina_depths</title>
<path fill="none" stroke="#888888" stroke-dasharray="5,2" d="M1305.86,-142.1C1313.43,-140.12 1321.84,-137.92 1329.94,-135.81"/>
<polygon fill="#888888" stroke="#888888" points="1330.82,-139.19 1339.61,-133.28 1329.05,-132.42 1330.82,-139.19"/>
</g>
</g>
</svg>
