<?xml version="1.0" encoding="UTF-8" standalone="no"?>
<!DOCTYPE svg PUBLIC "-//W3C//DTD SVG 1.1//EN"
 "http://www.w3.org/Graphics/SVG/1.1/DTD/svg11.dtd">
<!-- Generated by graphviz version 15.0.0 (20260523.1842)
 -->
<!-- Title: sekiro Pages: 1 -->
<svg width="2573pt" height="313pt"
 viewBox="0.00 0.00 2573.00 313.00" xmlns="http://www.w3.org/2000/svg" xmlns:xlink="http://www.w3.org/1999/xlink">
<g id="graph0" class="graph" transform="scale(1 1) rotate(0) translate(4 309)">
<title>sekiro</title>
<polygon fill="white" stroke="none" points="-4,4 -4,-309 2569.28,-309 2569.28,4 -4,4"/>
<!-- prologue_genichiro -->
<g id="node1" class="node">
<title>prologue_genichiro</title>
<ellipse fill="#c8e6c9" stroke="#2e7d32" cx="58.33" cy="-149" rx="58.33" ry="18"/>
<text xml:space="preserve" text-anchor="middle" x="58.33" y="-145.5" font-family="Helvetica,sans-Serif" font-size="10.00">prologue_genichiro</text>
</g>
<!-- lose_arm -->
<g id="node2" class="node">
<title>lose_arm</title>
<ellipse fill="#c8e6c9" stroke="#2e7d32" cx="186.18" cy="-149" rx="33.52" ry="18"/>
<text xml:space="preserve" text-anchor="middle" x="186.18" y="-145.5" font-family="Helvetica,sans-Serif" font-size="10.00">lose_arm</text>
</g>
<!-- prologue_genichiro&#45;&gt;lose_arm -->
<g id="edge1" class="edge">
<title>prologue_genichiro&#45;&gt;lose_arm</title>
<path fill="none" stroke="black" d="M117.1,-149C125.17,-149 133.35,-149 141.11,-149"/>
<polygon fill="black" stroke="black" points="140.98,-152.5 150.98,-149 140.98,-145.5 140.98,-152.5"/>
</g>
<!-- shinobi_prosthetic -->
<g id="node3" class="node">
<title>shinobi_prosthetic</title>
<polygon fill="#c8e6c9" stroke="#2e7d32" points="344.46,-221 255.71,-221 255.71,-185 350.46,-185 350.46,-215 344.46,-221"/>
<polyline fill="none" stroke="#2e7d32" points="344.46,-221 344.46,-215"/>
<polyline fill="none" stroke="#2e7d32" points="350.46,-215 344.46,-215"/>
<text xml:space="preserve" text-anchor="middle" x="303.08" y="-199.5" font-family="Helvetica,sans-Serif" font-size="10.00">shinobi_prosthetic</text>
</g>
<!-- lose_arm&#45;&gt;shinobi_prosthetic -->
<g id="edge2" class="edge">
<title>lose_arm&#45;&gt;shinobi_prosthetic</title>
<path fill="none" stroke="black" d="M212.12,-160.72C224.01,-166.31 238.68,-173.2 252.7,-179.79"/>
<polygon fill="black" stroke="black" points="250.83,-182.78 261.37,-183.87 253.81,-176.45 250.83,-182.78"/>
</g>
<!-- kusabimaru -->
<g id="node4" class="node">
<title>kusabimaru</title>
<polygon fill="#c8e6c9" stroke="#2e7d32" points="330.21,-167 269.96,-167 269.96,-131 336.21,-131 336.21,-161 330.21,-167"/>
<polyline fill="none" stroke="#2e7d32" points="330.21,-167 330.21,-161"/>
<polyline fill="none" stroke="#2e7d32" points="336.21,-161 330.21,-161"/>
<text xml:space="preserve" text-anchor="middle" x="303.08" y="-145.5" font-family="Helvetica,sans-Serif" font-size="10.00">kusabimaru</text>
</g>
<!-- lose_arm&#45;&gt;kusabimaru -->
<g id="edge3" class="edge">
<title>lose_arm&#45;&gt;kusabimaru</title>
<path fill="none" stroke="black" d="M220.11,-149C231.99,-149 245.59,-149 258.26,-149"/>
<polygon fill="black" stroke="black" points="258.04,-152.5 268.04,-149 258.04,-145.5 258.04,-152.5"/>
</g>
<!-- ashina_outskirts -->
<g id="node5" class="node">
<title>ashina_outskirts</title>
<path fill="#c8e6c9" stroke="#2e7d32" d="M334.71,-113C334.71,-113 271.46,-113 271.46,-113 265.46,-113 259.46,-107 259.46,-101 259.46,-101 259.46,-89 259.46,-89 259.46,-83 265.46,-77 271.46,-77 271.46,-77 334.71,-77 334.71,-77 340.71,-77 346.71,-83 346.71,-89 346.71,-89 346.71,-101 346.71,-101 346.71,-107 340.71,-113 334.71,-113"/>
<text xml:space="preserve" text-anchor="middle" x="303.08" y="-91.5" font-family="Helvetica,sans-Serif" font-size="10.00">ashina_outskirts</text>
</g>
<!-- lose_arm&#45;&gt;ashina_outskirts -->
<g id="edge4" class="edge">
<title>lose_arm&#45;&gt;ashina_outskirts</title>
<path fill="none" stroke="black" d="M212.12,-137.28C224.01,-131.69 238.68,-124.8 252.7,-118.21"/>
<polygon fill="black" stroke="black" points="253.81,-121.55 261.37,-114.13 250.83,-115.22 253.81,-121.55"/>
</g>
<!-- chained_ogre -->
<g id="node6" class="node">
<title>chained_ogre</title>
<path fill="#c8e6c9" stroke="#2e7d32" d="M482.46,-161.51C482.46,-161.51 482.46,-166.49 482.46,-166.49 482.46,-168.97 480.14,-172.33 477.81,-173.2 477.81,-173.2 459,-180.25 459,-180.25 456.67,-181.13 451.86,-182 449.37,-182 449.37,-182 419.55,-182 419.55,-182 417.06,-182 412.25,-181.13 409.92,-180.25 409.92,-180.25 391.11,-173.2 391.11,-173.2 388.79,-172.33 386.46,-168.97 386.46,-166.49 386.46,-166.49 386.46,-161.51 386.46,-161.51 386.46,-159.03 388.79,-155.67 391.11,-154.8 391.11,-154.8 409.92,-147.75 409.92,-147.75 412.25,-146.87 417.06,-146 419.55,-146 419.55,-146 449.37,-146 449.37,-146 451.86,-146 456.67,-146.87 459,-147.75 459,-147.75 477.81,-154.8 477.81,-154.8 480.14,-155.67 482.46,-159.03 482.46,-161.51"/>
<text xml:space="preserve" text-anchor="middle" x="434.46" y="-160.5" font-family="Helvetica,sans-Serif" font-size="10.00">chained_ogre</text>
</g>
<!-- ashina_outskirts&#45;&gt;chained_ogre -->
<g id="edge5" class="edge">
<title>ashina_outskirts&#45;&gt;chained_ogre</title>
<path fill="none" stroke="black" d="M338.75,-113.49C356.27,-122.83 377.57,-134.19 395.52,-143.77"/>
<polygon fill="black" stroke="black" points="393.85,-146.84 404.32,-148.46 397.14,-140.66 393.85,-146.84"/>
</g>
<!-- gyoubu_oniwa -->
<g id="node7" class="node">
<title>gyoubu_oniwa</title>
<path fill="#c8e6c9" stroke="#2e7d32" d="M634.97,-138.51C634.97,-138.51 634.97,-143.49 634.97,-143.49 634.97,-145.97 632.63,-149.28 630.29,-150.11 630.29,-150.11 609.82,-157.34 609.82,-157.34 607.48,-158.17 602.65,-159 600.17,-159 600.17,-159 567.91,-159 567.91,-159 565.43,-159 560.6,-158.17 558.26,-157.34 558.26,-157.34 537.8,-150.11 537.8,-150.11 535.45,-149.28 533.11,-145.97 533.11,-143.49 533.11,-143.49 533.11,-138.51 533.11,-138.51 533.11,-136.03 535.45,-132.72 537.8,-131.89 537.8,-131.89 558.26,-124.66 558.26,-124.66 560.6,-123.83 565.43,-123 567.91,-123 567.91,-123 600.17,-123 600.17,-123 602.65,-123 607.48,-123.83 609.82,-124.66 609.82,-124.66 630.29,-131.89 630.29,-131.89 632.63,-132.72 634.97,-136.03 634.97,-138.51"/>
<text xml:space="preserve" text-anchor="middle" x="584.04" y="-137.5" font-family="Helvetica,sans-Serif" font-size="10.00">gyoubu_oniwa</text>
</g>
<!-- ashina_outskirts&#45;&gt;gyoubu_oniwa -->
<g id="edge6" class="edge">
<title>ashina_outskirts&#45;&gt;gyoubu_oniwa</title>
<path fill="none" stroke="black" d="M347.06,-102.09C394.05,-109.83 469.69,-122.31 522.64,-131.04"/>
<polygon fill="black" stroke="black" points="521.97,-134.48 532.41,-132.65 523.11,-127.57 521.97,-134.48"/>
</g>
<!-- headless -->
<g id="node8" class="node">
<title>headless</title>
<path fill="#ffe0b2" stroke="#ef6c00" d="M467.82,-69.51C467.82,-69.51 467.82,-74.49 467.82,-74.49 467.82,-76.97 465.63,-80.64 463.44,-81.82 463.44,-81.82 452.65,-87.64 452.65,-87.64 450.47,-88.82 445.79,-90 443.31,-90 443.31,-90 425.61,-90 425.61,-90 423.13,-90 418.46,-88.82 416.27,-87.64 416.27,-87.64 405.48,-81.82 405.48,-81.82 403.29,-80.64 401.1,-76.97 401.1,-74.49 401.1,-74.49 401.1,-69.51 401.1,-69.51 401.1,-67.03 403.29,-63.36 405.48,-62.18 405.48,-62.18 416.27,-56.36 416.27,-56.36 418.46,-55.18 423.13,-54 425.61,-54 425.61,-54 443.31,-54 443.31,-54 445.79,-54 450.47,-55.18 452.65,-56.36 452.65,-56.36 463.44,-62.18 463.44,-62.18 465.63,-63.36 467.82,-67.03 467.82,-69.51"/>
<text xml:space="preserve" text-anchor="middle" x="434.46" y="-68.5" font-family="Helvetica,sans-Serif" font-size="10.00">? (boss)</text>
</g>
<!-- ashina_outskirts&#45;&gt;headless -->
<g id="edge7" class="edge">
<title>ashina_outskirts&#45;&gt;headless</title>
<path fill="none" stroke="black" d="M347.16,-87.34C360.83,-84.91 375.95,-82.22 389.67,-79.78"/>
<polygon fill="black" stroke="black" points="390.08,-83.27 399.31,-78.07 388.85,-76.38 390.08,-83.27"/>
</g>
<!-- hirata_estate -->
<g id="node9" class="node">
<title>hirata_estate</title>
<path fill="#c8e6c9" stroke="#2e7d32" d="M458.59,-36C458.59,-36 410.34,-36 410.34,-36 404.34,-36 398.34,-30 398.34,-24 398.34,-24 398.34,-12 398.34,-12 398.34,-6 404.34,0 410.34,0 410.34,0 458.59,0 458.59,0 464.59,0 470.59,-6 470.59,-12 470.59,-12 470.59,-24 470.59,-24 470.59,-30 464.59,-36 458.59,-36"/>
<text xml:space="preserve" text-anchor="middle" x="434.46" y="-14.5" font-family="Helvetica,sans-Serif" font-size="10.00">hirata_estate</text>
</g>
<!-- ashina_outskirts&#45;&gt;hirata_estate -->
<g id="edge8" class="edge">
<title>ashina_outskirts&#45;&gt;hirata_estate</title>
<path fill="none" stroke="black" d="M334.11,-76.54C349.67,-67.03 369.03,-55.29 386.46,-45 388.07,-44.05 389.72,-43.08 391.39,-42.1"/>
<polygon fill="black" stroke="black" points="392.85,-45.3 399.73,-37.25 389.33,-39.25 392.85,-45.3"/>
</g>
<!-- chained_ogre&#45;&gt;gyoubu_oniwa -->
<g id="edge39" class="edge">
<title>chained_ogre&#45;&gt;gyoubu_oniwa</title>
<path fill="none" stroke="#888888" stroke-dasharray="5,2" d="M482.56,-156.66C494.96,-154.73 508.52,-152.61 521.55,-150.58"/>
<polygon fill="#888888" stroke="#888888" points="521.98,-154.06 531.33,-149.06 520.91,-147.14 521.98,-154.06"/>
</g>
<!-- ashina_castle -->
<g id="node12" class="node">
<title>ashina_castle</title>
<path fill="#c8e6c9" stroke="#2e7d32" d="M760.11,-159C760.11,-159 708.11,-159 708.11,-159 702.11,-159 696.11,-153 696.11,-147 696.11,-147 696.11,-135 696.11,-135 696.11,-129 702.11,-123 708.11,-123 708.11,-123 760.11,-123 760.11,-123 766.11,-123 772.11,-129 772.11,-135 772.11,-135 772.11,-147 772.11,-147 772.11,-153 766.11,-159 760.11,-159"/>
<text xml:space="preserve" text-anchor="middle" x="734.11" y="-137.5" font-family="Helvetica,sans-Serif" font-size="10.00">ashina_castle</text>
</g>
<!-- gyoubu_oniwa&#45;&gt;ashina_castle -->
<g id="edge11" class="edge">
<title>gyoubu_oniwa&#45;&gt;ashina_castle</title>
<path fill="none" stroke="black" d="M635.17,-141C651.1,-141 668.69,-141 684.51,-141"/>
<polygon fill="black" stroke="black" points="684.16,-144.5 694.16,-141 684.16,-137.5 684.16,-144.5"/>
</g>
<!-- juzou_the_drunkard -->
<g id="node10" class="node">
<title>juzou_the_drunkard</title>
<path fill="#c8e6c9" stroke="#2e7d32" d="M649.62,-38.51C649.62,-38.51 649.62,-43.49 649.62,-43.49 649.62,-45.97 647.22,-49.11 644.82,-49.77 644.82,-49.77 616,-57.68 616,-57.68 613.6,-58.34 608.72,-59 606.23,-59 606.23,-59 561.85,-59 561.85,-59 559.36,-59 554.48,-58.34 552.08,-57.68 552.08,-57.68 523.26,-49.77 523.26,-49.77 520.86,-49.11 518.46,-45.97 518.46,-43.49 518.46,-43.49 518.46,-38.51 518.46,-38.51 518.46,-36.03 520.86,-32.89 523.26,-32.23 523.26,-32.23 552.08,-24.32 552.08,-24.32 554.48,-23.66 559.36,-23 561.85,-23 561.85,-23 606.23,-23 606.23,-23 608.72,-23 613.6,-23.66 616,-24.32 616,-24.32 644.82,-32.23 644.82,-32.23 647.22,-32.89 649.62,-36.03 649.62,-38.51"/>
<text xml:space="preserve" text-anchor="middle" x="584.04" y="-37.5" font-family="Helvetica,sans-Serif" font-size="10.00">juzou_the_drunkard</text>
</g>
<!-- hirata_estate&#45;&gt;juzou_the_drunkard -->
<g id="edge9" class="edge">
<title>hirata_estate&#45;&gt;juzou_the_drunkard</title>
<path fill="none" stroke="black" d="M470.81,-23.51C483.38,-25.47 498.02,-27.75 512.49,-30"/>
<polygon fill="black" stroke="black" points="511.57,-33.4 521.99,-31.49 512.65,-26.49 511.57,-33.4"/>
</g>
<!-- lady_butterfly -->
<g id="node11" class="node">
<title>lady_butterfly</title>
<path fill="#c8e6c9" stroke="#2e7d32" d="M782.6,-15.51C782.6,-15.51 782.6,-20.49 782.6,-20.49 782.6,-22.97 780.27,-26.32 777.94,-27.19 777.94,-27.19 758.85,-34.27 758.85,-34.27 756.52,-35.14 751.71,-36 749.22,-36 749.22,-36 718.99,-36 718.99,-36 716.51,-36 711.69,-35.14 709.36,-34.27 709.36,-34.27 690.28,-27.19 690.28,-27.19 687.95,-26.32 685.62,-22.97 685.62,-20.49 685.62,-20.49 685.62,-15.51 685.62,-15.51 685.62,-13.03 687.95,-9.68 690.28,-8.81 690.28,-8.81 709.36,-1.73 709.36,-1.73 711.69,-0.86 716.51,0 718.99,0 718.99,0 749.22,0 749.22,0 751.71,0 756.52,-0.86 758.85,-1.73 758.85,-1.73 777.94,-8.81 777.94,-8.81 780.27,-9.68 782.6,-13.03 782.6,-15.51"/>
<text xml:space="preserve" text-anchor="middle" x="734.11" y="-14.5" font-family="Helvetica,sans-Serif" font-size="10.00">lady_butterfly</text>
</g>
<!-- hirata_estate&#45;&gt;lady_butterfly -->
<g id="edge10" class="edge">
<title>hirata_estate&#45;&gt;lady_butterfly</title>
<path fill="none" stroke="black" d="M470.99,-15.91C485.68,-15.15 502.89,-14.38 518.46,-14 576.74,-12.6 591.34,-12.6 649.62,-14 657.51,-14.19 665.81,-14.48 674,-14.82"/>
<polygon fill="black" stroke="black" points="673.78,-18.31 683.93,-15.25 674.09,-11.32 673.78,-18.31"/>
</g>
<!-- juzou_the_drunkard&#45;&gt;lady_butterfly -->
<g id="edge40" class="edge">
<title>juzou_the_drunkard&#45;&gt;lady_butterfly</title>
<path fill="none" stroke="#888888" stroke-dasharray="5,2" d="M644.41,-31.78C654.24,-30.25 664.43,-28.67 674.25,-27.14"/>
<polygon fill="#888888" stroke="#888888" points="674.72,-30.61 684.07,-25.62 673.65,-23.69 674.72,-30.61"/>
</g>
<!-- blazing_bull -->
<g id="node13" class="node">
<title>blazing_bull</title>
<path fill="#c8e6c9" stroke="#2e7d32" d="M905.82,-184.51C905.82,-184.51 905.82,-189.49 905.82,-189.49 905.82,-191.97 903.52,-195.4 901.22,-196.35 901.22,-196.35 884.87,-203.1 884.87,-203.1 882.57,-204.05 877.79,-205 875.3,-205 875.3,-205 849.11,-205 849.11,-205 846.63,-205 841.85,-204.05 839.55,-203.1 839.55,-203.1 823.19,-196.35 823.19,-196.35 820.9,-195.4 818.6,-191.97 818.6,-189.49 818.6,-189.49 818.6,-184.51 818.6,-184.51 818.6,-182.03 820.9,-178.6 823.19,-177.65 823.19,-177.65 839.55,-170.9 839.55,-170.9 841.85,-169.95 846.63,-169 849.11,-169 849.11,-169 875.3,-169 875.3,-169 877.79,-169 882.57,-169.95 884.87,-170.9 884.87,-170.9 901.22,-177.65 901.22,-177.65 903.52,-178.6 905.82,-182.03 905.82,-184.51"/>
<text xml:space="preserve" text-anchor="middle" x="862.21" y="-183.5" font-family="Helvetica,sans-Serif" font-size="10.00">blazing_bull</text>
</g>
<!-- ashina_castle&#45;&gt;blazing_bull -->
<g id="edge12" class="edge">
<title>ashina_castle&#45;&gt;blazing_bull</title>
<path fill="none" stroke="black" d="M772.6,-154.68C786.85,-159.88 803.21,-165.84 817.95,-171.22"/>
<polygon fill="black" stroke="black" points="816.34,-174.36 826.93,-174.5 818.73,-167.78 816.34,-174.36"/>
</g>
<!-- genichiro_ashina -->
<g id="node14" class="node">
<title>genichiro_ashina</title>
<path fill="#c8e6c9" stroke="#2e7d32" d="M1057.35,-161.51C1057.35,-161.51 1057.35,-166.49 1057.35,-166.49 1057.35,-168.97 1054.98,-172.2 1052.6,-172.93 1052.6,-172.93 1028.26,-180.52 1028.26,-180.52 1025.88,-181.26 1021.02,-182 1018.54,-182 1018.54,-182 980.63,-182 980.63,-182 978.14,-182 973.28,-181.26 970.91,-180.52 970.91,-180.52 946.56,-172.93 946.56,-172.93 944.19,-172.2 941.82,-168.97 941.82,-166.49 941.82,-166.49 941.82,-161.51 941.82,-161.51 941.82,-159.03 944.19,-155.8 946.56,-155.07 946.56,-155.07 970.91,-147.48 970.91,-147.48 973.28,-146.74 978.14,-146 980.63,-146 980.63,-146 1018.54,-146 1018.54,-146 1021.02,-146 1025.88,-146.74 1028.26,-147.48 1028.26,-147.48 1052.6,-155.07 1052.6,-155.07 1054.98,-155.8 1057.35,-159.03 1057.35,-161.51"/>
<text xml:space="preserve" text-anchor="middle" x="999.58" y="-160.5" font-family="Helvetica,sans-Serif" font-size="10.00">genichiro_ashina</text>
</g>
<!-- ashina_castle&#45;&gt;genichiro_ashina -->
<g id="edge13" class="edge">
<title>ashina_castle&#45;&gt;genichiro_ashina</title>
<path fill="none" stroke="black" d="M772.58,-144.27C813.44,-147.84 879.7,-153.62 929.94,-158.01"/>
<polygon fill="black" stroke="black" points="929.6,-161.49 939.86,-158.87 930.21,-154.52 929.6,-161.49"/>
</g>
<!-- abandoned_dungeon -->
<g id="node16" class="node">
<title>abandoned_dungeon</title>
<path fill="#ffe0b2" stroke="#ef6c00" d="M877.21,-113C877.21,-113 847.21,-113 847.21,-113 841.21,-113 835.21,-107 835.21,-101 835.21,-101 835.21,-89 835.21,-89 835.21,-83 841.21,-77 847.21,-77 847.21,-77 877.21,-77 877.21,-77 883.21,-77 889.21,-83 889.21,-89 889.21,-89 889.21,-101 889.21,-101 889.21,-107 883.21,-113 877.21,-113"/>
<text xml:space="preserve" text-anchor="middle" x="862.21" y="-91.5" font-family="Helvetica,sans-Serif" font-size="10.00">? (area)</text>
</g>
<!-- ashina_castle&#45;&gt;abandoned_dungeon -->
<g id="edge15" class="edge">
<title>ashina_castle&#45;&gt;abandoned_dungeon</title>
<path fill="none" stroke="black" d="M772.6,-127.32C788.88,-121.38 807.9,-114.45 824.13,-108.53"/>
<polygon fill="black" stroke="black" points="825.24,-111.85 833.44,-105.13 822.84,-105.27 825.24,-111.85"/>
</g>
<!-- blazing_bull&#45;&gt;genichiro_ashina -->
<g id="edge41" class="edge">
<title>blazing_bull&#45;&gt;genichiro_ashina</title>
<path fill="none" stroke="#888888" stroke-dasharray="5,2" d="M906.04,-179.72C915.06,-178.19 924.76,-176.54 934.37,-174.91"/>
<polygon fill="#888888" stroke="#888888" points="934.8,-178.39 944.07,-173.26 933.63,-171.49 934.8,-178.39"/>
</g>
<!-- mushin_arts -->
<g id="node15" class="node">
<title>mushin_arts</title>
<path fill="#c8e6c9" stroke="#2e7d32" d="M1203.46,-259C1203.46,-259 1130.33,-259 1130.33,-259 1124.33,-259 1114.91,-254.07 1111.49,-249.14 1111.49,-249.14 1100.19,-232.86 1100.19,-232.86 1096.77,-227.93 1099.35,-223 1105.35,-223 1105.35,-223 1178.48,-223 1178.48,-223 1184.48,-223 1193.9,-227.93 1197.32,-232.86 1197.32,-232.86 1208.62,-249.14 1208.62,-249.14 1212.04,-254.07 1209.46,-259 1203.46,-259"/>
<text xml:space="preserve" text-anchor="middle" x="1154.4" y="-237.5" font-family="Helvetica,sans-Serif" font-size="10.00">mushin_arts</text>
</g>
<!-- genichiro_ashina&#45;&gt;mushin_arts -->
<g id="edge14" class="edge">
<title>genichiro_ashina&#45;&gt;mushin_arts</title>
<path fill="none" stroke="black" d="M1029.55,-180.31C1047.71,-190.35 1071.69,-203.31 1093.35,-214 1095.91,-215.26 1098.53,-216.53 1101.2,-217.8"/>
<polygon fill="black" stroke="black" points="1099.64,-220.94 1110.18,-222.01 1102.6,-214.6 1099.64,-220.94"/>
</g>
<!-- senpou_temple -->
<g id="node17" class="node">
<title>senpou_temple</title>
<path fill="#c8e6c9" stroke="#2e7d32" d="M1183.4,-205C1183.4,-205 1125.4,-205 1125.4,-205 1119.4,-205 1113.4,-199 1113.4,-193 1113.4,-193 1113.4,-181 1113.4,-181 1113.4,-175 1119.4,-169 1125.4,-169 1125.4,-169 1183.4,-169 1183.4,-169 1189.4,-169 1195.4,-175 1195.4,-181 1195.4,-181 1195.4,-193 1195.4,-193 1195.4,-199 1189.4,-205 1183.4,-205"/>
<text xml:space="preserve" text-anchor="middle" x="1154.4" y="-183.5" font-family="Helvetica,sans-Serif" font-size="10.00">senpou_temple</text>
</g>
<!-- genichiro_ashina&#45;&gt;senpou_temple -->
<g id="edge16" class="edge">
<title>genichiro_ashina&#45;&gt;senpou_temple</title>
<path fill="none" stroke="black" d="M1055.76,-172.3C1070.88,-174.58 1087.21,-177.04 1102.11,-179.28"/>
<polygon fill="black" stroke="black" points="1101.27,-182.69 1111.68,-180.72 1102.31,-175.77 1101.27,-182.69"/>
</g>
<!-- sunken_valley -->
<g id="node22" class="node">
<title>sunken_valley</title>
<path fill="#c8e6c9" stroke="#2e7d32" d="M1334.4,-159C1334.4,-159 1280.15,-159 1280.15,-159 1274.15,-159 1268.15,-153 1268.15,-147 1268.15,-147 1268.15,-135 1268.15,-135 1268.15,-129 1274.15,-123 1280.15,-123 1280.15,-123 1334.4,-123 1334.4,-123 1340.4,-123 1346.4,-129 1346.4,-135 1346.4,-135 1346.4,-147 1346.4,-147 1346.4,-153 1340.4,-159 1334.4,-159"/>
<text xml:space="preserve" text-anchor="middle" x="1307.27" y="-137.5" font-family="Helvetica,sans-Serif" font-size="10.00">sunken_valley</text>
</g>
<!-- genichiro_ashina&#45;&gt;sunken_valley -->
<g id="edge21" class="edge">
<title>genichiro_ashina&#45;&gt;sunken_valley</title>
<path fill="none" stroke="black" d="M1057.72,-159.7C1114.88,-155.4 1201.9,-148.85 1256.36,-144.76"/>
<polygon fill="black" stroke="black" points="1256.58,-148.25 1266.29,-144.01 1256.06,-141.27 1256.58,-148.25"/>
</g>
<!-- ashina_depths -->
<g id="node26" class="node">
<title>ashina_depths</title>
<path fill="#c8e6c9" stroke="#2e7d32" d="M1514.13,-105C1514.13,-105 1459.13,-105 1459.13,-105 1453.13,-105 1447.13,-99 1447.13,-93 1447.13,-93 1447.13,-81 1447.13,-81 1447.13,-75 1453.13,-69 1459.13,-69 1459.13,-69 1514.13,-69 1514.13,-69 1520.13,-69 1526.13,-75 1526.13,-81 1526.13,-81 1526.13,-93 1526.13,-93 1526.13,-99 1520.13,-105 1514.13,-105"/>
<text xml:space="preserve" text-anchor="middle" x="1486.63" y="-83.5" font-family="Helvetica,sans-Serif" font-size="10.00">ashina_depths</text>
</g>
<!-- genichiro_ashina&#45;&gt;ashina_depths -->
<g id="edge26" class="edge">
<title>genichiro_ashina&#45;&gt;ashina_depths</title>
<path fill="none" stroke="black" d="M1048.68,-153.39C1063.04,-150.29 1078.82,-146.94 1093.35,-144 1163.45,-129.8 1180.75,-124.77 1251.46,-114 1314.81,-104.35 1388.28,-96.4 1435.78,-91.69"/>
<polygon fill="black" stroke="black" points="1435.86,-95.2 1445.47,-90.74 1435.18,-88.23 1435.86,-95.2"/>
</g>
<!-- armored_warrior -->
<g id="node18" class="node">
<title>armored_warrior</title>
<path fill="#c8e6c9" stroke="#2e7d32" d="M1363.09,-284.51C1363.09,-284.51 1363.09,-289.49 1363.09,-289.49 1363.09,-291.97 1360.72,-295.22 1358.36,-295.98 1358.36,-295.98 1335.12,-303.47 1335.12,-303.47 1332.76,-304.24 1327.91,-305 1325.42,-305 1325.42,-305 1289.13,-305 1289.13,-305 1286.64,-305 1281.79,-304.24 1279.42,-303.47 1279.42,-303.47 1256.19,-295.98 1256.19,-295.98 1253.83,-295.22 1251.46,-291.97 1251.46,-289.49 1251.46,-289.49 1251.46,-284.51 1251.46,-284.51 1251.46,-282.03 1253.83,-278.78 1256.19,-278.02 1256.19,-278.02 1279.42,-270.53 1279.42,-270.53 1281.79,-269.76 1286.64,-269 1289.13,-269 1289.13,-269 1325.42,-269 1325.42,-269 1327.91,-269 1332.76,-269.76 1335.12,-270.53 1335.12,-270.53 1358.36,-278.02 1358.36,-278.02 1360.72,-278.78 1363.09,-282.03 1363.09,-284.51"/>
<text xml:space="preserve" text-anchor="middle" x="1307.27" y="-283.5" font-family="Helvetica,sans-Serif" font-size="10.00">armored_warrior</text>
</g>
<!-- senpou_temple&#45;&gt;armored_warrior -->
<g id="edge17" class="edge">
<title>senpou_temple&#45;&gt;armored_warrior</title>
<path fill="none" stroke="black" d="M1195.73,-201.85C1202.65,-205.3 1209.52,-209.35 1215.46,-214 1235.9,-230.01 1231.31,-243.63 1251.46,-260 1254.52,-262.48 1257.84,-264.81 1261.29,-266.98"/>
<polygon fill="black" stroke="black" points="1259.49,-269.99 1269.9,-271.92 1262.96,-263.91 1259.49,-269.99"/>
</g>
<!-- long_arm_centipede_senun -->
<g id="node19" class="node">
<title>long_arm_centipede_senun</title>
<path fill="#ffe0b2" stroke="#ef6c00" d="M1340.63,-230.51C1340.63,-230.51 1340.63,-235.49 1340.63,-235.49 1340.63,-237.97 1338.44,-241.64 1336.26,-242.82 1336.26,-242.82 1325.47,-248.64 1325.47,-248.64 1323.28,-249.82 1318.61,-251 1316.12,-251 1316.12,-251 1298.43,-251 1298.43,-251 1295.94,-251 1291.27,-249.82 1289.08,-248.64 1289.08,-248.64 1278.29,-242.82 1278.29,-242.82 1276.1,-241.64 1273.92,-237.97 1273.92,-235.49 1273.92,-235.49 1273.92,-230.51 1273.92,-230.51 1273.92,-228.03 1276.1,-224.36 1278.29,-223.18 1278.29,-223.18 1289.08,-217.36 1289.08,-217.36 1291.27,-216.18 1295.94,-215 1298.43,-215 1298.43,-215 1316.12,-215 1316.12,-215 1318.61,-215 1323.28,-216.18 1325.47,-217.36 1325.47,-217.36 1336.26,-223.18 1336.26,-223.18 1338.44,-224.36 1340.63,-228.03 1340.63,-230.51"/>
<text xml:space="preserve" text-anchor="middle" x="1307.27" y="-229.5" font-family="Helvetica,sans-Serif" font-size="10.00">? (boss)</text>
</g>
<!-- senpou_temple&#45;&gt;long_arm_centipede_senun -->
<g id="edge18" class="edge">
<title>senpou_temple&#45;&gt;long_arm_centipede_senun</title>
<path fill="none" stroke="black" d="M1195.84,-199.33C1217.39,-205.9 1243.84,-213.97 1265.46,-220.56"/>
<polygon fill="black" stroke="black" points="1264.23,-223.84 1274.82,-223.41 1266.27,-217.15 1264.23,-223.84"/>
</g>
<!-- folding_screen_monkeys -->
<g id="node20" class="node">
<title>folding_screen_monkeys</title>
<path fill="#c8e6c9" stroke="#2e7d32" d="M1567.34,-284.51C1567.34,-284.51 1567.34,-289.49 1567.34,-289.49 1567.34,-291.97 1564.91,-295 1562.49,-295.54 1562.49,-295.54 1524.91,-303.92 1524.91,-303.92 1522.49,-304.46 1517.58,-305 1515.09,-305 1515.09,-305 1458.17,-305 1458.17,-305 1455.69,-305 1450.77,-304.46 1448.35,-303.92 1448.35,-303.92 1410.77,-295.54 1410.77,-295.54 1408.35,-295 1405.92,-291.97 1405.92,-289.49 1405.92,-289.49 1405.92,-284.51 1405.92,-284.51 1405.92,-282.03 1408.35,-279 1410.77,-278.46 1410.77,-278.46 1448.35,-270.08 1448.35,-270.08 1450.77,-269.54 1455.69,-269 1458.17,-269 1458.17,-269 1515.09,-269 1515.09,-269 1517.58,-269 1522.49,-269.54 1524.91,-270.08 1524.91,-270.08 1562.49,-278.46 1562.49,-278.46 1564.91,-279 1567.34,-282.03 1567.34,-284.51"/>
<text xml:space="preserve" text-anchor="middle" x="1486.63" y="-283.5" font-family="Helvetica,sans-Serif" font-size="10.00">folding_screen_monkeys</text>
</g>
<!-- senpou_temple&#45;&gt;folding_screen_monkeys -->
<g id="edge19" class="edge">
<title>senpou_temple&#45;&gt;folding_screen_monkeys</title>
<path fill="none" stroke="black" d="M1195.61,-180.95C1239.88,-176.39 1311.6,-175.35 1363.09,-206 1387.87,-220.76 1376,-242.71 1399.09,-260 1404.33,-263.93 1410.16,-267.29 1416.25,-270.17"/>
<polygon fill="black" stroke="black" points="1414.7,-273.32 1425.27,-273.99 1417.43,-266.87 1414.7,-273.32"/>
</g>
<!-- senpou_temple&#45;&gt;sunken_valley -->
<g id="edge43" class="edge">
<title>senpou_temple&#45;&gt;sunken_valley</title>
<path fill="none" stroke="#888888" stroke-dasharray="5,2" d="M1195.84,-174.67C1214.6,-168.95 1237.08,-162.1 1256.85,-156.07"/>
<polygon fill="#888888" stroke="#888888" points="1257.82,-159.43 1266.37,-153.17 1255.78,-152.74 1257.82,-159.43"/>
</g>
<!-- armored_warrior&#45;&gt;folding_screen_monkeys -->
<g id="edge42" class="edge">
<title>armored_warrior&#45;&gt;folding_screen_monkeys</title>
<path fill="none" stroke="#888888" stroke-dasharray="5,2" d="M1363.42,-287C1373.2,-287 1383.62,-287 1394.1,-287"/>
<polygon fill="#888888" stroke="#888888" points="1393.94,-290.5 1403.94,-287 1393.94,-283.5 1393.94,-290.5"/>
</g>
<!-- mortal_blade -->
<g id="node21" class="node">
<title>mortal_blade</title>
<polygon fill="#c8e6c9" stroke="#2e7d32" points="1801.74,-283 1736.24,-283 1736.24,-247 1807.74,-247 1807.74,-277 1801.74,-283"/>
<polyline fill="none" stroke="#2e7d32" points="1801.74,-283 1801.74,-277"/>
<polyline fill="none" stroke="#2e7d32" points="1807.74,-277 1801.74,-277"/>
<text xml:space="preserve" text-anchor="middle" x="1771.99" y="-261.5" font-family="Helvetica,sans-Serif" font-size="10.00">mortal_blade</text>
</g>
<!-- folding_screen_monkeys&#45;&gt;mortal_blade -->
<g id="edge20" class="edge">
<title>folding_screen_monkeys&#45;&gt;mortal_blade</title>
<path fill="none" stroke="black" d="M1567.69,-280.78C1618.41,-276.85 1682.2,-271.89 1724.66,-268.6"/>
<polygon fill="black" stroke="black" points="1724.84,-272.09 1734.54,-267.83 1724.3,-265.11 1724.84,-272.09"/>
</g>
<!-- gun_fort -->
<g id="node25" class="node">
<title>gun_fort</title>
<path fill="#ffe0b2" stroke="#ef6c00" d="M1660.17,-247C1660.17,-247 1630.17,-247 1630.17,-247 1624.17,-247 1618.17,-241 1618.17,-235 1618.17,-235 1618.17,-223 1618.17,-223 1618.17,-217 1624.17,-211 1630.17,-211 1630.17,-211 1660.17,-211 1660.17,-211 1666.17,-211 1672.17,-217 1672.17,-223 1672.17,-223 1672.17,-235 1672.17,-235 1672.17,-241 1666.17,-247 1660.17,-247"/>
<text xml:space="preserve" text-anchor="middle" x="1645.17" y="-225.5" font-family="Helvetica,sans-Serif" font-size="10.00">? (area)</text>
</g>
<!-- folding_screen_monkeys&#45;&gt;gun_fort -->
<g id="edge24" class="edge">
<title>folding_screen_monkeys&#45;&gt;gun_fort</title>
<path fill="none" stroke="black" d="M1537.39,-272.55C1549.52,-268.73 1562.39,-264.43 1574.17,-260 1585.19,-255.86 1596.95,-250.88 1607.63,-246.13"/>
<polygon fill="black" stroke="black" points="1608.83,-249.43 1616.5,-242.12 1605.95,-243.05 1608.83,-249.43"/>
</g>
<!-- fountainhead_palace -->
<g id="node30" class="node">
<title>fountainhead_palace</title>
<path fill="#c8e6c9" stroke="#2e7d32" d="M1957.05,-240C1957.05,-240 1875.8,-240 1875.8,-240 1869.8,-240 1863.8,-234 1863.8,-228 1863.8,-228 1863.8,-216 1863.8,-216 1863.8,-210 1869.8,-204 1875.8,-204 1875.8,-204 1957.05,-204 1957.05,-204 1963.05,-204 1969.05,-210 1969.05,-216 1969.05,-216 1969.05,-228 1969.05,-228 1969.05,-234 1963.05,-240 1957.05,-240"/>
<text xml:space="preserve" text-anchor="middle" x="1916.43" y="-218.5" font-family="Helvetica,sans-Serif" font-size="10.00">fountainhead_palace</text>
</g>
<!-- mortal_blade&#45;&gt;fountainhead_palace -->
<g id="edge30" class="edge">
<title>mortal_blade&#45;&gt;fountainhead_palace</title>
<path fill="none" stroke="black" d="M1808.2,-254.37C1821.59,-250.33 1837.28,-245.59 1852.47,-241"/>
<polygon fill="black" stroke="black" points="1853.39,-244.38 1861.95,-238.14 1851.37,-237.68 1853.39,-244.38"/>
</g>
<!-- snake_eyes_shirahagi -->
<g id="node23" class="node">
<title>snake_eyes_shirahagi</title>
<path fill="#c8e6c9" stroke="#2e7d32" d="M1560.02,-230.51C1560.02,-230.51 1560.02,-235.49 1560.02,-235.49 1560.02,-237.97 1557.6,-241.05 1555.19,-241.64 1555.19,-241.64 1521.86,-249.82 1521.86,-249.82 1519.44,-250.41 1514.54,-251 1512.06,-251 1512.06,-251 1461.2,-251 1461.2,-251 1458.72,-251 1453.82,-250.41 1451.41,-249.82 1451.41,-249.82 1418.07,-241.64 1418.07,-241.64 1415.66,-241.05 1413.24,-237.97 1413.24,-235.49 1413.24,-235.49 1413.24,-230.51 1413.24,-230.51 1413.24,-228.03 1415.66,-224.95 1418.07,-224.36 1418.07,-224.36 1451.41,-216.18 1451.41,-216.18 1453.82,-215.59 1458.72,-215 1461.2,-215 1461.2,-215 1512.06,-215 1512.06,-215 1514.54,-215 1519.44,-215.59 1521.86,-216.18 1521.86,-216.18 1555.19,-224.36 1555.19,-224.36 1557.6,-224.95 1560.02,-228.03 1560.02,-230.51"/>
<text xml:space="preserve" text-anchor="middle" x="1486.63" y="-229.5" font-family="Helvetica,sans-Serif" font-size="10.00">snake_eyes_shirahagi</text>
</g>
<!-- sunken_valley&#45;&gt;snake_eyes_shirahagi -->
<g id="edge22" class="edge">
<title>sunken_valley&#45;&gt;snake_eyes_shirahagi</title>
<path fill="none" stroke="black" d="M1342.33,-159.36C1349.37,-163.57 1356.61,-168.23 1363.09,-173 1380.56,-185.88 1380.27,-195.17 1399.09,-206 1406.12,-210.05 1413.83,-213.56 1421.66,-216.59"/>
<polygon fill="black" stroke="black" points="1420.34,-219.83 1430.94,-219.91 1422.71,-213.24 1420.34,-219.83"/>
</g>
<!-- long_arm_centipede_giraffe -->
<g id="node24" class="node">
<title>long_arm_centipede_giraffe</title>
<path fill="#c8e6c9" stroke="#2e7d32" d="M1574.17,-176.51C1574.17,-176.51 1574.17,-181.49 1574.17,-181.49 1574.17,-183.97 1571.74,-186.96 1569.31,-187.46 1569.31,-187.46 1527.76,-196 1527.76,-196 1525.33,-196.5 1520.41,-197 1517.92,-197 1517.92,-197 1455.34,-197 1455.34,-197 1452.85,-197 1447.93,-196.5 1445.5,-196 1445.5,-196 1403.96,-187.46 1403.96,-187.46 1401.52,-186.96 1399.09,-183.97 1399.09,-181.49 1399.09,-181.49 1399.09,-176.51 1399.09,-176.51 1399.09,-174.03 1401.52,-171.04 1403.96,-170.54 1403.96,-170.54 1445.5,-162 1445.5,-162 1447.93,-161.5 1452.85,-161 1455.34,-161 1455.34,-161 1517.92,-161 1517.92,-161 1520.41,-161 1525.33,-161.5 1527.76,-162 1527.76,-162 1569.31,-170.54 1569.31,-170.54 1571.74,-171.04 1574.17,-174.03 1574.17,-176.51"/>
<text xml:space="preserve" text-anchor="middle" x="1486.63" y="-175.5" font-family="Helvetica,sans-Serif" font-size="10.00">long_arm_centipede_giraffe</text>
</g>
<!-- sunken_valley&#45;&gt;long_arm_centipede_giraffe -->
<g id="edge23" class="edge">
<title>sunken_valley&#45;&gt;long_arm_centipede_giraffe</title>
<path fill="none" stroke="black" d="M1346.76,-149.25C1366.28,-153.43 1390.65,-158.65 1413.49,-163.54"/>
<polygon fill="black" stroke="black" points="1412.57,-166.92 1423.08,-165.6 1414.03,-160.08 1412.57,-166.92"/>
</g>
<!-- sunken_valley&#45;&gt;gun_fort -->
<g id="edge25" class="edge">
<title>sunken_valley&#45;&gt;gun_fort</title>
<path fill="none" stroke="black" d="M1346.54,-133.74C1400.22,-125.46 1499.67,-117.18 1574.17,-152 1575.75,-152.73 1600.64,-180.31 1620.29,-202.25"/>
<polygon fill="black" stroke="black" points="1617.49,-204.37 1626.77,-209.49 1622.71,-199.7 1617.49,-204.37"/>
</g>
<!-- sunken_valley&#45;&gt;ashina_depths -->
<g id="edge44" class="edge">
<title>sunken_valley&#45;&gt;ashina_depths</title>
<path fill="none" stroke="#888888" stroke-dasharray="5,2" d="M1346.76,-129.28C1372.93,-121.31 1407.8,-110.7 1436.05,-102.1"/>
<polygon fill="#888888" stroke="#888888" points="1436.92,-105.49 1445.47,-99.23 1434.88,-98.79 1436.92,-105.49"/>
</g>
<!-- mibu_village -->
<g id="node27" class="node">
<title>mibu_village</title>
<path fill="#c8e6c9" stroke="#2e7d32" d="M1668.17,-182C1668.17,-182 1622.17,-182 1622.17,-182 1616.17,-182 1610.17,-176 1610.17,-170 1610.17,-170 1610.17,-158 1610.17,-158 1610.17,-152 1616.17,-146 1622.17,-146 1622.17,-146 1668.17,-146 1668.17,-146 1674.17,-146 1680.17,-152 1680.17,-158 1680.17,-158 1680.17,-170 1680.17,-170 1680.17,-176 1674.17,-182 1668.17,-182"/>
<text xml:space="preserve" text-anchor="middle" x="1645.17" y="-160.5" font-family="Helvetica,sans-Serif" font-size="10.00">mibu_village</text>
</g>
<!-- ashina_depths&#45;&gt;mibu_village -->
<g id="edge27" class="edge">
<title>ashina_depths&#45;&gt;mibu_village</title>
<path fill="none" stroke="black" d="M1526.3,-99.28C1541.53,-104.63 1558.98,-111.42 1574.17,-119 1585.85,-124.83 1598.01,-132.15 1608.85,-139.18"/>
<polygon fill="black" stroke="black" points="1606.85,-142.05 1617.12,-144.67 1610.72,-136.22 1606.85,-142.05"/>
</g>
<!-- headless_ape -->
<g id="node28" class="node">
<title>headless_ape</title>
<path fill="#ffe0b2" stroke="#ef6c00" d="M1678.53,-84.51C1678.53,-84.51 1678.53,-89.49 1678.53,-89.49 1678.53,-91.97 1676.35,-95.64 1674.16,-96.82 1674.16,-96.82 1663.37,-102.64 1663.37,-102.64 1661.18,-103.82 1656.51,-105 1654.02,-105 1654.02,-105 1636.33,-105 1636.33,-105 1633.84,-105 1629.17,-103.82 1626.98,-102.64 1626.98,-102.64 1616.19,-96.82 1616.19,-96.82 1614,-95.64 1611.82,-91.97 1611.82,-89.49 1611.82,-89.49 1611.82,-84.51 1611.82,-84.51 1611.82,-82.03 1614,-78.36 1616.19,-77.18 1616.19,-77.18 1626.98,-71.36 1626.98,-71.36 1629.17,-70.18 1633.84,-69 1636.33,-69 1636.33,-69 1654.02,-69 1654.02,-69 1656.51,-69 1661.18,-70.18 1663.37,-71.36 1663.37,-71.36 1674.16,-77.18 1674.16,-77.18 1676.35,-78.36 1678.53,-82.03 1678.53,-84.51"/>
<text xml:space="preserve" text-anchor="middle" x="1645.17" y="-83.5" font-family="Helvetica,sans-Serif" font-size="10.00">? (boss)</text>
</g>
<!-- ashina_depths&#45;&gt;headless_ape -->
<g id="edge28" class="edge">
<title>ashina_depths&#45;&gt;headless_ape</title>
<path fill="none" stroke="black" d="M1526.33,-87C1548.71,-87 1576.96,-87 1600.18,-87"/>
<polygon fill="black" stroke="black" points="1599.96,-90.5 1609.96,-87 1599.96,-83.5 1599.96,-90.5"/>
</g>
<!-- corrupted_monk -->
<g id="node29" class="node">
<title>corrupted_monk</title>
<path fill="#c8e6c9" stroke="#2e7d32" d="M1827.8,-192.51C1827.8,-192.51 1827.8,-197.49 1827.8,-197.49 1827.8,-199.97 1825.44,-203.22 1823.07,-203.98 1823.07,-203.98 1799.84,-211.47 1799.84,-211.47 1797.47,-212.24 1792.62,-213 1790.14,-213 1790.14,-213 1753.84,-213 1753.84,-213 1751.35,-213 1746.5,-212.24 1744.14,-211.47 1744.14,-211.47 1720.91,-203.98 1720.91,-203.98 1718.54,-203.22 1716.17,-199.97 1716.17,-197.49 1716.17,-197.49 1716.17,-192.51 1716.17,-192.51 1716.17,-190.03 1718.54,-186.78 1720.91,-186.02 1720.91,-186.02 1744.14,-178.53 1744.14,-178.53 1746.5,-177.76 1751.35,-177 1753.84,-177 1753.84,-177 1790.14,-177 1790.14,-177 1792.62,-177 1797.47,-177.76 1799.84,-178.53 1799.84,-178.53 1823.07,-186.02 1823.07,-186.02 1825.44,-186.78 1827.8,-190.03 1827.8,-192.51"/>
<text xml:space="preserve" text-anchor="middle" x="1771.99" y="-191.5" font-family="Helvetica,sans-Serif" font-size="10.00">corrupted_monk</text>
</g>
<!-- mibu_village&#45;&gt;corrupted_monk -->
<g id="edge29" class="edge">
<title>mibu_village&#45;&gt;corrupted_monk</title>
<path fill="none" stroke="black" d="M1680.61,-172.55C1691.33,-175.21 1703.43,-178.22 1715.22,-181.15"/>
<polygon fill="black" stroke="black" points="1714.35,-184.54 1724.9,-183.55 1716.04,-177.74 1714.35,-184.54"/>
</g>
<!-- corrupted_monk&#45;&gt;fountainhead_palace -->
<g id="edge31" class="edge">
<title>corrupted_monk&#45;&gt;fountainhead_palace</title>
<path fill="none" stroke="black" d="M1822.81,-204.44C1832.37,-206.26 1842.49,-208.17 1852.4,-210.05"/>
<polygon fill="black" stroke="black" points="1851.5,-213.44 1861.97,-211.87 1852.8,-206.57 1851.5,-213.44"/>
</g>
<!-- true_corrupted_monk -->
<g id="node31" class="node">
<title>true_corrupted_monk</title>
<path fill="#c8e6c9" stroke="#2e7d32" d="M2144.99,-242.51C2144.99,-242.51 2144.99,-247.49 2144.99,-247.49 2144.99,-249.97 2142.58,-253.08 2140.18,-253.69 2140.18,-253.69 2108.82,-261.76 2108.82,-261.76 2106.41,-262.38 2101.52,-263 2099.03,-263 2099.03,-263 2051.01,-263 2051.01,-263 2048.52,-263 2043.63,-262.38 2041.23,-261.76 2041.23,-261.76 2009.87,-253.69 2009.87,-253.69 2007.46,-253.08 2005.05,-249.97 2005.05,-247.49 2005.05,-247.49 2005.05,-242.51 2005.05,-242.51 2005.05,-240.03 2007.46,-236.92 2009.87,-236.31 2009.87,-236.31 2041.23,-228.24 2041.23,-228.24 2043.63,-227.62 2048.52,-227 2051.01,-227 2051.01,-227 2099.03,-227 2099.03,-227 2101.52,-227 2106.41,-227.62 2108.82,-228.24 2108.82,-228.24 2140.18,-236.31 2140.18,-236.31 2142.58,-236.92 2144.99,-240.03 2144.99,-242.51"/>
<text xml:space="preserve" text-anchor="middle" x="2075.02" y="-241.5" font-family="Helvetica,sans-Serif" font-size="10.00">true_corrupted_monk</text>
</g>
<!-- fountainhead_palace&#45;&gt;true_corrupted_monk -->
<g id="edge32" class="edge">
<title>fountainhead_palace&#45;&gt;true_corrupted_monk</title>
<path fill="none" stroke="black" d="M1969.14,-229.59C1978.88,-231.03 1989.26,-232.55 1999.54,-234.06"/>
<polygon fill="black" stroke="black" points="1998.73,-237.48 2009.13,-235.47 1999.75,-230.55 1998.73,-237.48"/>
</g>
<!-- divine_dragon -->
<g id="node32" class="node">
<title>divine_dragon</title>
<path fill="#c8e6c9" stroke="#2e7d32" d="M2279.93,-219.51C2279.93,-219.51 2279.93,-224.49 2279.93,-224.49 2279.93,-226.97 2277.59,-230.31 2275.25,-231.16 2275.25,-231.16 2255.62,-238.3 2255.62,-238.3 2253.28,-239.15 2248.46,-240 2245.98,-240 2245.98,-240 2214.94,-240 2214.94,-240 2212.45,-240 2207.63,-239.15 2205.3,-238.3 2205.3,-238.3 2185.66,-231.16 2185.66,-231.16 2183.33,-230.31 2180.99,-226.97 2180.99,-224.49 2180.99,-224.49 2180.99,-219.51 2180.99,-219.51 2180.99,-217.03 2183.33,-213.69 2185.66,-212.84 2185.66,-212.84 2205.3,-205.7 2205.3,-205.7 2207.63,-204.85 2212.45,-204 2214.94,-204 2214.94,-204 2245.98,-204 2245.98,-204 2248.46,-204 2253.28,-204.85 2255.62,-205.7 2255.62,-205.7 2275.25,-212.84 2275.25,-212.84 2277.59,-213.69 2279.93,-217.03 2279.93,-219.51"/>
<text xml:space="preserve" text-anchor="middle" x="2230.46" y="-218.5" font-family="Helvetica,sans-Serif" font-size="10.00">divine_dragon</text>
</g>
<!-- fountainhead_palace&#45;&gt;divine_dragon -->
<g id="edge34" class="edge">
<title>fountainhead_palace&#45;&gt;divine_dragon</title>
<path fill="none" stroke="black" d="M1969.31,-219.24C1981.06,-218.72 1993.48,-218.26 2005.05,-218 2067.23,-216.58 2082.81,-216.53 2144.99,-218 2152.87,-218.19 2161.16,-218.47 2169.35,-218.8"/>
<polygon fill="black" stroke="black" points="2169.13,-222.3 2179.27,-219.24 2169.44,-215.3 2169.13,-222.3"/>
</g>
<!-- true_corrupted_monk&#45;&gt;divine_dragon -->
<g id="edge33" class="edge">
<title>true_corrupted_monk&#45;&gt;divine_dragon</title>
<path fill="none" stroke="black" d="M2138.87,-235.58C2148.97,-234.06 2159.41,-232.5 2169.44,-231"/>
<polygon fill="black" stroke="black" points="2169.69,-234.5 2179.06,-229.55 2168.66,-227.58 2169.69,-234.5"/>
</g>
<!-- ashina_reservoir_revisited -->
<g id="node33" class="node">
<title>ashina_reservoir_revisited</title>
<path fill="#ffe0b2" stroke="#ef6c00" d="M2398.28,-267C2398.28,-267 2368.28,-267 2368.28,-267 2362.28,-267 2356.28,-261 2356.28,-255 2356.28,-255 2356.28,-243 2356.28,-243 2356.28,-237 2362.28,-231 2368.28,-231 2368.28,-231 2398.28,-231 2398.28,-231 2404.28,-231 2410.28,-237 2410.28,-243 2410.28,-243 2410.28,-255 2410.28,-255 2410.28,-261 2404.28,-267 2398.28,-267"/>
<text xml:space="preserve" text-anchor="middle" x="2383.28" y="-245.5" font-family="Helvetica,sans-Serif" font-size="10.00">? (area)</text>
</g>
<!-- divine_dragon&#45;&gt;ashina_reservoir_revisited -->
<g id="edge35" class="edge">
<title>divine_dragon&#45;&gt;ashina_reservoir_revisited</title>
<path fill="none" stroke="black" d="M2278.35,-230.39C2299.75,-234.23 2324.73,-238.7 2344.85,-242.3"/>
<polygon fill="black" stroke="black" points="2344.11,-245.72 2354.57,-244.04 2345.34,-238.83 2344.11,-245.72"/>
</g>
<!-- owl_iron_code_choice -->
<g id="node34" class="node">
<title>owl_iron_code_choice</title>
<ellipse fill="#c8e6c9" stroke="#2e7d32" cx="2383.28" cy="-195" rx="67.35" ry="18"/>
<text xml:space="preserve" text-anchor="middle" x="2383.28" y="-191.5" font-family="Helvetica,sans-Serif" font-size="10.00">owl_iron_code_choice</text>
</g>
<!-- divine_dragon&#45;&gt;owl_iron_code_choice -->
<g id="edge36" class="edge">
<title>divine_dragon&#45;&gt;owl_iron_code_choice</title>
<path fill="none" stroke="black" d="M2278.35,-213.61C2290,-211.52 2302.72,-209.24 2315.13,-207.02"/>
<polygon fill="black" stroke="black" points="2315.69,-210.48 2324.92,-205.27 2314.46,-203.58 2315.69,-210.48"/>
</g>
<!-- ending_shura -->
<g id="node35" class="node">
<title>ending_shura</title>
<ellipse fill="#ffe0b2" stroke="#ef6c00" cx="2525.95" cy="-233" rx="35.33" ry="35.33"/>
<ellipse fill="none" stroke="#ef6c00" cx="2525.95" cy="-233" rx="39.33" ry="39.33"/>
<text xml:space="preserve" text-anchor="middle" x="2525.95" y="-229.5" font-family="Helvetica,sans-Serif" font-size="10.00">? (ending)</text>
</g>
<!-- owl_iron_code_choice&#45;&gt;ending_shura -->
<g id="edge37" class="edge">
<title>owl_iron_code_choice&#45;&gt;ending_shura</title>
<path fill="none" stroke="black" d="M2431.9,-207.87C2446.39,-211.78 2462.31,-216.08 2476.82,-220"/>
<polygon fill="black" stroke="black" points="2475.57,-223.29 2486.14,-222.52 2477.4,-216.53 2475.57,-223.29"/>
</g>
<!-- great_shinobi_owl -->
<g id="node36" class="node">
<title>great_shinobi_owl</title>
<path fill="#ffe0b2" stroke="#ef6c00" d="M2559.31,-155.51C2559.31,-155.51 2559.31,-160.49 2559.31,-160.49 2559.31,-162.97 2557.12,-166.64 2554.94,-167.82 2554.94,-167.82 2544.15,-173.64 2544.15,-173.64 2541.96,-174.82 2537.29,-176 2534.8,-176 2534.8,-176 2517.11,-176 2517.11,-176 2514.62,-176 2509.95,-174.82 2507.76,-173.64 2507.76,-173.64 2496.97,-167.82 2496.97,-167.82 2494.78,-166.64 2492.6,-162.97 2492.6,-160.49 2492.6,-160.49 2492.6,-155.51 2492.6,-155.51 2492.6,-153.03 2494.78,-149.36 2496.97,-148.18 2496.97,-148.18 2507.76,-142.36 2507.76,-142.36 2509.95,-141.18 2514.62,-140 2517.11,-140 2517.11,-140 2534.8,-140 2534.8,-140 2537.29,-140 2541.96,-141.18 2544.15,-142.36 2544.15,-142.36 2554.94,-148.18 2554.94,-148.18 2557.12,-149.36 2559.31,-153.03 2559.31,-155.51"/>
<text xml:space="preserve" text-anchor="middle" x="2525.95" y="-154.5" font-family="Helvetica,sans-Serif" font-size="10.00">? (boss)</text>
</g>
<!-- owl_iron_code_choice&#45;&gt;great_shinobi_owl -->
<g id="edge38" class="edge">
<title>owl_iron_code_choice&#45;&gt;great_shinobi_owl</title>
<path fill="none" stroke="black" d="M2432.3,-182.37C2448.56,-178.09 2466.61,-173.35 2482.42,-169.19"/>
<polygon fill="black" stroke="black" points="2483.24,-172.59 2492.02,-166.66 2481.46,-165.82 2483.24,-172.59"/>
</g>
</g>
</svg>
