<?xml version="1.0" encoding="UTF-8" standalone="no"?>
<!DOCTYPE svg PUBLIC "-//W3C//DTD SVG 1.1//EN"
 "http://www.w3.org/Graphics/SVG/1.1/DTD/svg11.dtd">
<!-- Generated by graphviz version 15.0.0 (20260523.1842)
 -->
<!-- Title: sekiro Pages: 1 -->
<svg width="3573pt" height="489pt"
 viewBox="0.00 0.00 3573.00 489.00" xmlns="http://www.w3.org/2000/svg" xmlns:xlink="http://www.w3.org/1999/xlink">
<g id="graph0" class="graph" transform="scale(1 1) rotate(0) translate(4 485.05)">
<title>sekiro</title>
<polygon fill="white" stroke="none" points="-4,4 -4,-485.05 3568.55,-485.05 3568.55,4 -4,4"/>
<!-- prologue_genichiro -->
<g id="node1" class="node">
<title>prologue_genichiro</title>
<ellipse fill="#c8e6c9" stroke="#2e7d32" cx="58.33" cy="-321.33" rx="58.33" ry="18"/>
<text xml:space="preserve" text-anchor="middle" x="58.33" y="-317.83" font-family="Helvetica,sans-Serif" font-size="10.00">prologue_genichiro</text>
</g>
<!-- lose_arm -->
<g id="node2" class="node">
<title>lose_arm</title>
<ellipse fill="#c8e6c9" stroke="#2e7d32" cx="186.18" cy="-321.33" rx="33.52" ry="18"/>
<text xml:space="preserve" text-anchor="middle" x="186.18" y="-317.83" font-family="Helvetica,sans-Serif" font-size="10.00">lose_arm</text>
</g>
<!-- prologue_genichiro&#45;&gt;lose_arm -->
<g id="edge1" class="edge">
<title>prologue_genichiro&#45;&gt;lose_arm</title>
<path fill="none" stroke="black" d="M117.1,-321.33C125.17,-321.33 133.35,-321.33 141.11,-321.33"/>
<polygon fill="black" stroke="black" points="140.98,-324.83 150.98,-321.33 140.98,-317.83 140.98,-324.83"/>
</g>
<!-- shinobi_prosthetic -->
<g id="node3" class="node">
<title>shinobi_prosthetic</title>
<polygon fill="#c8e6c9" stroke="#2e7d32" points="344.46,-393.33 255.71,-393.33 255.71,-357.33 350.46,-357.33 350.46,-387.33 344.46,-393.33"/>
<polyline fill="none" stroke="#2e7d32" points="344.46,-393.33 344.46,-387.33"/>
<polyline fill="none" stroke="#2e7d32" points="350.46,-387.33 344.46,-387.33"/>
<text xml:space="preserve" text-anchor="middle" x="303.08" y="-371.83" font-family="Helvetica,sans-Serif" font-size="10.00">shinobi_prosthetic</text>
</g>
<!-- lose_arm&#45;&gt;shinobi_prosthetic -->
<g id="edge2" class="edge">
<title>lose_arm&#45;&gt;shinobi_prosthetic</title>
<path fill="none" stroke="black" d="M212.12,-333.05C224.01,-338.64 238.68,-345.53 252.7,-352.12"/>
<polygon fill="black" stroke="black" points="250.83,-355.11 261.37,-356.2 253.81,-348.78 250.83,-355.11"/>
</g>
<!-- kusabimaru -->
<g id="node4" class="node">
<title>kusabimaru</title>
<polygon fill="#c8e6c9" stroke="#2e7d32" points="330.21,-339.33 269.96,-339.33 269.96,-303.33 336.21,-303.33 336.21,-333.33 330.21,-339.33"/>
<polyline fill="none" stroke="#2e7d32" points="330.21,-339.33 330.21,-333.33"/>
<polyline fill="none" stroke="#2e7d32" points="336.21,-333.33 330.21,-333.33"/>
<text xml:space="preserve" text-anchor="middle" x="303.08" y="-317.83" font-family="Helvetica,sans-Serif" font-size="10.00">kusabimaru</text>
</g>
<!-- lose_arm&#45;&gt;kusabimaru -->
<g id="edge3" class="edge">
<title>lose_arm&#45;&gt;kusabimaru</title>
<path fill="none" stroke="black" d="M220.11,-321.33C231.99,-321.33 245.59,-321.33 258.26,-321.33"/>
<polygon fill="black" stroke="black" points="258.04,-324.83 268.04,-321.33 258.04,-317.83 258.04,-324.83"/>
</g>
<!-- ashina_outskirts -->
<g id="node5" class="node">
<title>ashina_outskirts</title>
<path fill="#c8e6c9" stroke="#2e7d32" d="M334.71,-285.33C334.71,-285.33 271.46,-285.33 271.46,-285.33 265.46,-285.33 259.46,-279.33 259.46,-273.33 259.46,-273.33 259.46,-261.33 259.46,-261.33 259.46,-255.33 265.46,-249.33 271.46,-249.33 271.46,-249.33 334.71,-249.33 334.71,-249.33 340.71,-249.33 346.71,-255.33 346.71,-261.33 346.71,-261.33 346.71,-273.33 346.71,-273.33 346.71,-279.33 340.71,-285.33 334.71,-285.33"/>
<text xml:space="preserve" text-anchor="middle" x="303.08" y="-263.83" font-family="Helvetica,sans-Serif" font-size="10.00">ashina_outskirts</text>
</g>
<!-- lose_arm&#45;&gt;ashina_outskirts -->
<g id="edge4" class="edge">
<title>lose_arm&#45;&gt;ashina_outskirts</title>
<path fill="none" stroke="black" d="M212.12,-309.61C224.01,-304.02 238.68,-297.13 252.7,-290.54"/>
<polygon fill="black" stroke="black" points="253.81,-293.88 261.37,-286.46 250.83,-287.55 253.81,-293.88"/>
</g>
<!-- chained_ogre -->
<g id="node6" class="node">
<title>chained_ogre</title>
<path fill="#c8e6c9" stroke="#2e7d32" d="M482.46,-333.84C482.46,-333.84 482.46,-338.82 482.46,-338.82 482.46,-341.3 480.14,-344.66 477.81,-345.53 477.81,-345.53 459,-352.58 459,-352.58 456.67,-353.46 451.86,-354.33 449.37,-354.33 449.37,-354.33 419.55,-354.33 419.55,-354.33 417.06,-354.33 412.25,-353.46 409.92,-352.58 409.92,-352.58 391.11,-345.53 391.11,-345.53 388.79,-344.66 386.46,-341.3 386.46,-338.82 386.46,-338.82 386.46,-333.84 386.46,-333.84 386.46,-331.36 388.79,-328 391.11,-327.13 391.11,-327.13 409.92,-320.07 409.92,-320.07 412.25,-319.2 417.06,-318.33 419.55,-318.33 419.55,-318.33 449.37,-318.33 449.37,-318.33 451.86,-318.33 456.67,-319.2 459,-320.07 459,-320.07 477.81,-327.13 477.81,-327.13 480.14,-328 482.46,-331.36 482.46,-333.84"/>
<text xml:space="preserve" text-anchor="middle" x="434.46" y="-332.83" font-family="Helvetica,sans-Serif" font-size="10.00">chained_ogre</text>
</g>
<!-- ashina_outskirts&#45;&gt;chained_ogre -->
<g id="edge5" class="edge">
<title>ashina_outskirts&#45;&gt;chained_ogre</title>
<path fill="none" stroke="black" d="M338.75,-285.82C356.27,-295.16 377.57,-306.52 395.52,-316.1"/>
<polygon fill="black" stroke="black" points="393.85,-319.17 404.32,-320.79 397.14,-312.99 393.85,-319.17"/>
</g>
<!-- gyoubu_oniwa -->
<g id="node7" class="node">
<title>gyoubu_oniwa</title>
<path fill="#ffe0b2" stroke="#ef6c00" d="M634.97,-310.84C634.97,-310.84 634.97,-315.82 634.97,-315.82 634.97,-318.3 632.63,-321.61 630.29,-322.44 630.29,-322.44 609.82,-329.67 609.82,-329.67 607.48,-330.5 602.65,-331.33 600.17,-331.33 600.17,-331.33 567.91,-331.33 567.91,-331.33 565.43,-331.33 560.6,-330.5 558.26,-329.67 558.26,-329.67 537.8,-322.44 537.8,-322.44 535.45,-321.61 533.11,-318.3 533.11,-315.82 533.11,-315.82 533.11,-310.84 533.11,-310.84 533.11,-308.36 535.45,-305.05 537.8,-304.22 537.8,-304.22 558.26,-296.99 558.26,-296.99 560.6,-296.16 565.43,-295.33 567.91,-295.33 567.91,-295.33 600.17,-295.33 600.17,-295.33 602.65,-295.33 607.48,-296.16 609.82,-296.99 609.82,-296.99 630.29,-304.22 630.29,-304.22 632.63,-305.05 634.97,-308.36 634.97,-310.84"/>
<text xml:space="preserve" text-anchor="middle" x="584.04" y="-309.83" font-family="Helvetica,sans-Serif" font-size="10.00">gyoubu_oniwa</text>
</g>
<!-- ashina_outskirts&#45;&gt;gyoubu_oniwa -->
<g id="edge6" class="edge">
<title>ashina_outskirts&#45;&gt;gyoubu_oniwa</title>
<path fill="none" stroke="black" d="M347.06,-274.42C394.05,-282.16 469.69,-294.64 522.64,-303.37"/>
<polygon fill="black" stroke="black" points="521.97,-306.81 532.41,-304.98 523.11,-299.9 521.97,-306.81"/>
</g>
<!-- headless -->
<g id="node8" class="node">
<title>headless</title>
<path fill="#ffe0b2" stroke="#ef6c00" d="M470.26,-241.84C470.26,-241.84 470.26,-246.82 470.26,-246.82 470.26,-249.3 468.04,-252.9 465.82,-254.02 465.82,-254.02 453.73,-260.1 453.73,-260.1 451.51,-261.21 446.8,-262.33 444.32,-262.33 444.32,-262.33 424.6,-262.33 424.6,-262.33 422.12,-262.33 417.41,-261.21 415.19,-260.1 415.19,-260.1 403.1,-254.02 403.1,-254.02 400.88,-252.9 398.66,-249.3 398.66,-246.82 398.66,-246.82 398.66,-241.84 398.66,-241.84 398.66,-239.36 400.88,-235.76 403.1,-234.64 403.1,-234.64 415.19,-228.56 415.19,-228.56 417.41,-227.45 422.12,-226.33 424.6,-226.33 424.6,-226.33 444.32,-226.33 444.32,-226.33 446.8,-226.33 451.51,-227.45 453.73,-228.56 453.73,-228.56 465.82,-234.64 465.82,-234.64 468.04,-235.76 470.26,-239.36 470.26,-241.84"/>
<text xml:space="preserve" text-anchor="middle" x="434.46" y="-240.83" font-family="Helvetica,sans-Serif" font-size="10.00">headless</text>
</g>
<!-- ashina_outskirts&#45;&gt;headless -->
<g id="edge7" class="edge">
<title>ashina_outskirts&#45;&gt;headless</title>
<path fill="none" stroke="black" d="M347.16,-259.67C360.01,-257.39 374.15,-254.87 387.19,-252.56"/>
<polygon fill="black" stroke="black" points="387.59,-256.04 396.82,-250.84 386.37,-249.15 387.59,-256.04"/>
</g>
<!-- hirata_estate -->
<g id="node9" class="node">
<title>hirata_estate</title>
<path fill="#ffe0b2" stroke="#ef6c00" d="M458.59,-208.33C458.59,-208.33 410.34,-208.33 410.34,-208.33 404.34,-208.33 398.34,-202.33 398.34,-196.33 398.34,-196.33 398.34,-184.33 398.34,-184.33 398.34,-178.33 404.34,-172.33 410.34,-172.33 410.34,-172.33 458.59,-172.33 458.59,-172.33 464.59,-172.33 470.59,-178.33 470.59,-184.33 470.59,-184.33 470.59,-196.33 470.59,-196.33 470.59,-202.33 464.59,-208.33 458.59,-208.33"/>
<text xml:space="preserve" text-anchor="middle" x="434.46" y="-186.83" font-family="Helvetica,sans-Serif" font-size="10.00">hirata_estate</text>
</g>
<!-- ashina_outskirts&#45;&gt;hirata_estate -->
<g id="edge8" class="edge">
<title>ashina_outskirts&#45;&gt;hirata_estate</title>
<path fill="none" stroke="black" d="M334.11,-248.87C349.67,-239.36 369.03,-227.62 386.46,-217.33 388.07,-216.38 389.72,-215.41 391.39,-214.43"/>
<polygon fill="black" stroke="black" points="392.85,-217.63 399.73,-209.58 389.33,-211.58 392.85,-217.63"/>
</g>
<!-- chained_ogre&#45;&gt;gyoubu_oniwa -->
<g id="edge55" class="edge">
<title>chained_ogre&#45;&gt;gyoubu_oniwa</title>
<path fill="none" stroke="#888888" stroke-dasharray="5,2" d="M482.56,-328.99C494.96,-327.06 508.52,-324.94 521.55,-322.91"/>
<polygon fill="#888888" stroke="#888888" points="521.98,-326.39 531.33,-321.39 520.91,-319.47 521.98,-326.39"/>
</g>
<!-- ashina_castle -->
<g id="node12" class="node">
<title>ashina_castle</title>
<path fill="#f5f5f5" stroke="#9e9e9e" d="M760.11,-331.33C760.11,-331.33 708.11,-331.33 708.11,-331.33 702.11,-331.33 696.11,-325.33 696.11,-319.33 696.11,-319.33 696.11,-307.33 696.11,-307.33 696.11,-301.33 702.11,-295.33 708.11,-295.33 708.11,-295.33 760.11,-295.33 760.11,-295.33 766.11,-295.33 772.11,-301.33 772.11,-307.33 772.11,-307.33 772.11,-319.33 772.11,-319.33 772.11,-325.33 766.11,-331.33 760.11,-331.33"/>
<text xml:space="preserve" text-anchor="middle" x="734.11" y="-309.83" font-family="Helvetica,sans-Serif" font-size="10.00">ashina_castle</text>
</g>
<!-- gyoubu_oniwa&#45;&gt;ashina_castle -->
<g id="edge11" class="edge">
<title>gyoubu_oniwa&#45;&gt;ashina_castle</title>
<path fill="none" stroke="black" d="M635.17,-313.33C651.1,-313.33 668.69,-313.33 684.51,-313.33"/>
<polygon fill="black" stroke="black" points="684.16,-316.83 694.16,-313.33 684.16,-309.83 684.16,-316.83"/>
</g>
<!-- juzou_the_drunkard -->
<g id="node10" class="node">
<title>juzou_the_drunkard</title>
<path fill="#f5f5f5" stroke="#9e9e9e" d="M649.62,-233.84C649.62,-233.84 649.62,-238.82 649.62,-238.82 649.62,-241.3 647.22,-244.44 644.82,-245.1 644.82,-245.1 616,-253.01 616,-253.01 613.6,-253.67 608.72,-254.33 606.23,-254.33 606.23,-254.33 561.85,-254.33 561.85,-254.33 559.36,-254.33 554.48,-253.67 552.08,-253.01 552.08,-253.01 523.26,-245.1 523.26,-245.1 520.86,-244.44 518.46,-241.3 518.46,-238.82 518.46,-238.82 518.46,-233.84 518.46,-233.84 518.46,-231.36 520.86,-228.22 523.26,-227.56 523.26,-227.56 552.08,-219.65 552.08,-219.65 554.48,-218.99 559.36,-218.33 561.85,-218.33 561.85,-218.33 606.23,-218.33 606.23,-218.33 608.72,-218.33 613.6,-218.99 616,-219.65 616,-219.65 644.82,-227.56 644.82,-227.56 647.22,-228.22 649.62,-231.36 649.62,-233.84"/>
<text xml:space="preserve" text-anchor="middle" x="584.04" y="-232.83" font-family="Helvetica,sans-Serif" font-size="10.00">juzou_the_drunkard</text>
</g>
<!-- hirata_estate&#45;&gt;juzou_the_drunkard -->
<g id="edge9" class="edge">
<title>hirata_estate&#45;&gt;juzou_the_drunkard</title>
<path fill="none" stroke="black" d="M470.81,-201.35C488.07,-206.73 509.22,-213.32 528.49,-219.33"/>
<polygon fill="black" stroke="black" points="527.24,-222.6 537.83,-222.24 529.32,-215.92 527.24,-222.6"/>
</g>
<!-- lady_butterfly -->
<g id="node11" class="node">
<title>lady_butterfly</title>
<path fill="#f5f5f5" stroke="#9e9e9e" d="M782.6,-210.84C782.6,-210.84 782.6,-215.82 782.6,-215.82 782.6,-218.3 780.27,-221.65 777.94,-222.52 777.94,-222.52 758.85,-229.6 758.85,-229.6 756.52,-230.46 751.71,-231.33 749.22,-231.33 749.22,-231.33 718.99,-231.33 718.99,-231.33 716.51,-231.33 711.69,-230.46 709.36,-229.6 709.36,-229.6 690.28,-222.52 690.28,-222.52 687.95,-221.65 685.62,-218.3 685.62,-215.82 685.62,-215.82 685.62,-210.84 685.62,-210.84 685.62,-208.36 687.95,-205.01 690.28,-204.14 690.28,-204.14 709.36,-197.06 709.36,-197.06 711.69,-196.19 716.51,-195.33 718.99,-195.33 718.99,-195.33 749.22,-195.33 749.22,-195.33 751.71,-195.33 756.52,-196.19 758.85,-197.06 758.85,-197.06 777.94,-204.14 777.94,-204.14 780.27,-205.01 782.6,-208.36 782.6,-210.84"/>
<text xml:space="preserve" text-anchor="middle" x="734.11" y="-209.83" font-family="Helvetica,sans-Serif" font-size="10.00">lady_butterfly</text>
</g>
<!-- hirata_estate&#45;&gt;lady_butterfly -->
<g id="edge10" class="edge">
<title>hirata_estate&#45;&gt;lady_butterfly</title>
<path fill="none" stroke="black" d="M471.07,-193.08C521.23,-196.96 613.31,-204.07 673.87,-208.75"/>
<polygon fill="black" stroke="black" points="673.42,-212.23 683.66,-209.51 673.96,-205.25 673.42,-212.23"/>
</g>
<!-- juzou_the_drunkard&#45;&gt;lady_butterfly -->
<g id="edge56" class="edge">
<title>juzou_the_drunkard&#45;&gt;lady_butterfly</title>
<path fill="none" stroke="#888888" stroke-dasharray="5,2" d="M644.41,-227.11C654.24,-225.58 664.43,-224 674.25,-222.47"/>
<polygon fill="#888888" stroke="#888888" points="674.72,-225.94 684.07,-220.95 673.65,-219.02 674.72,-225.94"/>
</g>
<!-- blazing_bull -->
<g id="node13" class="node">
<title>blazing_bull</title>
<path fill="#f5f5f5" stroke="#9e9e9e" d="M914.83,-356.84C914.83,-356.84 914.83,-361.82 914.83,-361.82 914.83,-364.3 912.54,-367.73 910.24,-368.68 910.24,-368.68 893.88,-375.43 893.88,-375.43 891.58,-376.38 886.8,-377.33 884.32,-377.33 884.32,-377.33 858.13,-377.33 858.13,-377.33 855.65,-377.33 850.86,-376.38 848.57,-375.43 848.57,-375.43 832.21,-368.68 832.21,-368.68 829.91,-367.73 827.61,-364.3 827.61,-361.82 827.61,-361.82 827.61,-356.84 827.61,-356.84 827.61,-354.36 829.91,-350.93 832.21,-349.98 832.21,-349.98 848.57,-343.23 848.57,-343.23 850.86,-342.28 855.65,-341.33 858.13,-341.33 858.13,-341.33 884.32,-341.33 884.32,-341.33 886.8,-341.33 891.58,-342.28 893.88,-343.23 893.88,-343.23 910.24,-349.98 910.24,-349.98 912.54,-350.93 914.83,-354.36 914.83,-356.84"/>
<text xml:space="preserve" text-anchor="middle" x="871.22" y="-355.83" font-family="Helvetica,sans-Serif" font-size="10.00">blazing_bull</text>
</g>
<!-- ashina_castle&#45;&gt;blazing_bull -->
<g id="edge12" class="edge">
<title>ashina_castle&#45;&gt;blazing_bull</title>
<path fill="none" stroke="black" d="M772.39,-326.02C788.95,-331.66 808.57,-338.34 825.87,-344.23"/>
<polygon fill="black" stroke="black" points="824.28,-347.38 834.87,-347.29 826.53,-340.76 824.28,-347.38"/>
</g>
<!-- genichiro_ashina -->
<g id="node14" class="node">
<title>genichiro_ashina</title>
<path fill="#f5f5f5" stroke="#9e9e9e" d="M1079.29,-337.84C1079.29,-337.84 1079.29,-342.82 1079.29,-342.82 1079.29,-345.3 1076.91,-348.52 1074.54,-349.26 1074.54,-349.26 1050.19,-356.85 1050.19,-356.85 1047.82,-357.59 1042.96,-358.33 1040.48,-358.33 1040.48,-358.33 1002.56,-358.33 1002.56,-358.33 1000.08,-358.33 995.22,-357.59 992.85,-356.85 992.85,-356.85 968.5,-349.26 968.5,-349.26 966.13,-348.52 963.75,-345.3 963.75,-342.82 963.75,-342.82 963.75,-337.84 963.75,-337.84 963.75,-335.36 966.13,-332.13 968.5,-331.4 968.5,-331.4 992.85,-323.81 992.85,-323.81 995.22,-323.07 1000.08,-322.33 1002.56,-322.33 1002.56,-322.33 1040.48,-322.33 1040.48,-322.33 1042.96,-322.33 1047.82,-323.07 1050.19,-323.81 1050.19,-323.81 1074.54,-331.4 1074.54,-331.4 1076.91,-332.13 1079.29,-335.36 1079.29,-337.84"/>
<text xml:space="preserve" text-anchor="middle" x="1021.52" y="-336.83" font-family="Helvetica,sans-Serif" font-size="10.00">genichiro_ashina</text>
</g>
<!-- ashina_castle&#45;&gt;genichiro_ashina -->
<g id="edge13" class="edge">
<title>ashina_castle&#45;&gt;genichiro_ashina</title>
<path fill="none" stroke="black" d="M772.42,-316.86C817.94,-321.17 895.78,-328.53 952.15,-333.86"/>
<polygon fill="black" stroke="black" points="951.69,-337.33 961.97,-334.79 952.35,-330.36 951.69,-337.33"/>
</g>
<!-- abandoned_dungeon -->
<g id="node16" class="node">
<title>abandoned_dungeon</title>
<path fill="#f5f5f5" stroke="#9e9e9e" d="M911.85,-285.33C911.85,-285.33 830.6,-285.33 830.6,-285.33 824.6,-285.33 818.6,-279.33 818.6,-273.33 818.6,-273.33 818.6,-261.33 818.6,-261.33 818.6,-255.33 824.6,-249.33 830.6,-249.33 830.6,-249.33 911.85,-249.33 911.85,-249.33 917.85,-249.33 923.85,-255.33 923.85,-261.33 923.85,-261.33 923.85,-273.33 923.85,-273.33 923.85,-279.33 917.85,-285.33 911.85,-285.33"/>
<text xml:space="preserve" text-anchor="middle" x="871.22" y="-263.83" font-family="Helvetica,sans-Serif" font-size="10.00">abandoned_dungeon</text>
</g>
<!-- ashina_castle&#45;&gt;abandoned_dungeon -->
<g id="edge15" class="edge">
<title>ashina_castle&#45;&gt;abandoned_dungeon</title>
<path fill="none" stroke="black" d="M772.39,-300.64C783.21,-296.95 795.34,-292.82 807.28,-288.76"/>
<polygon fill="black" stroke="black" points="808.38,-292.08 816.72,-285.55 806.12,-285.46 808.38,-292.08"/>
</g>
<!-- blazing_bull&#45;&gt;genichiro_ashina -->
<g id="edge57" class="edge">
<title>blazing_bull&#45;&gt;genichiro_ashina</title>
<path fill="none" stroke="#888888" stroke-dasharray="5,2" d="M915.12,-353.83C926.64,-352.36 939.4,-350.72 951.95,-349.12"/>
<polygon fill="#888888" stroke="#888888" points="952.39,-352.59 961.87,-347.84 951.51,-345.64 952.39,-352.59"/>
</g>
<!-- mushin_arts -->
<g id="node15" class="node">
<title>mushin_arts</title>
<path fill="#f5f5f5" stroke="#9e9e9e" d="M1229.3,-437.33C1229.3,-437.33 1156.18,-437.33 1156.18,-437.33 1150.18,-437.33 1140.76,-432.4 1137.33,-427.47 1137.33,-427.47 1126.03,-411.19 1126.03,-411.19 1122.61,-406.26 1125.19,-401.33 1131.19,-401.33 1131.19,-401.33 1204.32,-401.33 1204.32,-401.33 1210.32,-401.33 1219.74,-406.26 1223.16,-411.19 1223.16,-411.19 1234.46,-427.47 1234.46,-427.47 1237.88,-432.4 1235.3,-437.33 1229.3,-437.33"/>
<text xml:space="preserve" text-anchor="middle" x="1180.25" y="-415.83" font-family="Helvetica,sans-Serif" font-size="10.00">mushin_arts</text>
</g>
<!-- genichiro_ashina&#45;&gt;mushin_arts -->
<g id="edge14" class="edge">
<title>genichiro_ashina&#45;&gt;mushin_arts</title>
<path fill="none" stroke="black" d="M1051.85,-356.81C1070.87,-367.32 1096.29,-381.04 1119.19,-392.33 1121.75,-393.59 1124.38,-394.86 1127.04,-396.13"/>
<polygon fill="black" stroke="black" points="1125.48,-399.26 1136.02,-400.33 1128.45,-392.92 1125.48,-399.26"/>
</g>
<!-- senpou_temple -->
<g id="node18" class="node">
<title>senpou_temple</title>
<path fill="#f5f5f5" stroke="#9e9e9e" d="M1209.25,-383.33C1209.25,-383.33 1151.25,-383.33 1151.25,-383.33 1145.25,-383.33 1139.25,-377.33 1139.25,-371.33 1139.25,-371.33 1139.25,-359.33 1139.25,-359.33 1139.25,-353.33 1145.25,-347.33 1151.25,-347.33 1151.25,-347.33 1209.25,-347.33 1209.25,-347.33 1215.25,-347.33 1221.25,-353.33 1221.25,-359.33 1221.25,-359.33 1221.25,-371.33 1221.25,-371.33 1221.25,-377.33 1215.25,-383.33 1209.25,-383.33"/>
<text xml:space="preserve" text-anchor="middle" x="1180.25" y="-361.83" font-family="Helvetica,sans-Serif" font-size="10.00">senpou_temple</text>
</g>
<!-- genichiro_ashina&#45;&gt;senpou_temple -->
<g id="edge17" class="edge">
<title>genichiro_ashina&#45;&gt;senpou_temple</title>
<path fill="none" stroke="black" d="M1076.9,-349C1093.42,-351.64 1111.51,-354.53 1127.83,-357.13"/>
<polygon fill="black" stroke="black" points="1126.89,-360.52 1137.31,-358.64 1127.99,-353.61 1126.89,-360.52"/>
</g>
<!-- sunken_valley -->
<g id="node23" class="node">
<title>sunken_valley</title>
<path fill="#f5f5f5" stroke="#9e9e9e" d="M1391.97,-331.33C1391.97,-331.33 1337.72,-331.33 1337.72,-331.33 1331.72,-331.33 1325.72,-325.33 1325.72,-319.33 1325.72,-319.33 1325.72,-307.33 1325.72,-307.33 1325.72,-301.33 1331.72,-295.33 1337.72,-295.33 1337.72,-295.33 1391.97,-295.33 1391.97,-295.33 1397.97,-295.33 1403.97,-301.33 1403.97,-307.33 1403.97,-307.33 1403.97,-319.33 1403.97,-319.33 1403.97,-325.33 1397.97,-331.33 1391.97,-331.33"/>
<text xml:space="preserve" text-anchor="middle" x="1364.85" y="-309.83" font-family="Helvetica,sans-Serif" font-size="10.00">sunken_valley</text>
</g>
<!-- genichiro_ashina&#45;&gt;sunken_valley -->
<g id="edge22" class="edge">
<title>genichiro_ashina&#45;&gt;sunken_valley</title>
<path fill="none" stroke="black" d="M1079.65,-335.81C1145.26,-330.62 1251.84,-322.19 1314.15,-317.26"/>
<polygon fill="black" stroke="black" points="1314.42,-320.75 1324.12,-316.47 1313.87,-313.77 1314.42,-320.75"/>
</g>
<!-- ashina_depths -->
<g id="node28" class="node">
<title>ashina_depths</title>
<path fill="#f5f5f5" stroke="#9e9e9e" d="M1603.43,-277.33C1603.43,-277.33 1548.43,-277.33 1548.43,-277.33 1542.43,-277.33 1536.43,-271.33 1536.43,-265.33 1536.43,-265.33 1536.43,-253.33 1536.43,-253.33 1536.43,-247.33 1542.43,-241.33 1548.43,-241.33 1548.43,-241.33 1603.43,-241.33 1603.43,-241.33 1609.43,-241.33 1615.43,-247.33 1615.43,-253.33 1615.43,-253.33 1615.43,-265.33 1615.43,-265.33 1615.43,-271.33 1609.43,-277.33 1603.43,-277.33"/>
<text xml:space="preserve" text-anchor="middle" x="1575.93" y="-255.83" font-family="Helvetica,sans-Serif" font-size="10.00">ashina_depths</text>
</g>
<!-- genichiro_ashina&#45;&gt;ashina_depths -->
<g id="edge28" class="edge">
<title>genichiro_ashina&#45;&gt;ashina_depths</title>
<path fill="none" stroke="black" d="M1070.69,-329.78C1086.17,-326.42 1103.4,-322.69 1119.19,-319.33 1189.4,-304.38 1206.3,-296.92 1277.3,-286.33 1363.9,-273.41 1465.66,-265.79 1524.96,-262.1"/>
<polygon fill="black" stroke="black" points="1524.96,-265.6 1534.73,-261.5 1524.53,-258.62 1524.96,-265.6"/>
</g>
<!-- shichimen_warrior -->
<g id="node17" class="node">
<title>shichimen_warrior</title>
<path fill="#f5f5f5" stroke="#9e9e9e" d="M1083.19,-264.84C1083.19,-264.84 1083.19,-269.82 1083.19,-269.82 1083.19,-272.3 1080.81,-275.48 1078.42,-276.18 1078.42,-276.18 1051.84,-283.94 1051.84,-283.94 1049.45,-284.63 1044.58,-285.33 1042.09,-285.33 1042.09,-285.33 1000.95,-285.33 1000.95,-285.33 998.46,-285.33 993.59,-284.63 991.2,-283.94 991.2,-283.94 964.62,-276.18 964.62,-276.18 962.23,-275.48 959.85,-272.3 959.85,-269.82 959.85,-269.82 959.85,-264.84 959.85,-264.84 959.85,-262.36 962.23,-259.18 964.62,-258.48 964.62,-258.48 991.2,-250.72 991.2,-250.72 993.59,-250.03 998.46,-249.33 1000.95,-249.33 1000.95,-249.33 1042.09,-249.33 1042.09,-249.33 1044.58,-249.33 1049.45,-250.03 1051.84,-250.72 1051.84,-250.72 1078.42,-258.48 1078.42,-258.48 1080.81,-259.18 1083.19,-262.36 1083.19,-264.84"/>
<text xml:space="preserve" text-anchor="middle" x="1021.52" y="-263.83" font-family="Helvetica,sans-Serif" font-size="10.00">shichimen_warrior</text>
</g>
<!-- abandoned_dungeon&#45;&gt;shichimen_warrior -->
<g id="edge16" class="edge">
<title>abandoned_dungeon&#45;&gt;shichimen_warrior</title>
<path fill="none" stroke="black" d="M924.09,-267.33C931.87,-267.33 940.01,-267.33 948.12,-267.33"/>
<polygon fill="black" stroke="black" points="948.01,-270.83 958.01,-267.33 948.01,-263.83 948.01,-270.83"/>
</g>
<!-- armored_warrior -->
<g id="node19" class="node">
<title>armored_warrior</title>
<path fill="#f5f5f5" stroke="#9e9e9e" d="M1420.66,-418.84C1420.66,-418.84 1420.66,-423.82 1420.66,-423.82 1420.66,-426.3 1418.29,-429.55 1415.93,-430.31 1415.93,-430.31 1392.7,-437.8 1392.7,-437.8 1390.33,-438.57 1385.48,-439.33 1382.99,-439.33 1382.99,-439.33 1346.7,-439.33 1346.7,-439.33 1344.21,-439.33 1339.36,-438.57 1337,-437.8 1337,-437.8 1313.76,-430.31 1313.76,-430.31 1311.4,-429.55 1309.03,-426.3 1309.03,-423.82 1309.03,-423.82 1309.03,-418.84 1309.03,-418.84 1309.03,-416.36 1311.4,-413.11 1313.76,-412.35 1313.76,-412.35 1337,-404.86 1337,-404.86 1339.36,-404.09 1344.21,-403.33 1346.7,-403.33 1346.7,-403.33 1382.99,-403.33 1382.99,-403.33 1385.48,-403.33 1390.33,-404.09 1392.7,-404.86 1392.7,-404.86 1415.93,-412.35 1415.93,-412.35 1418.29,-413.11 1420.66,-416.36 1420.66,-418.84"/>
<text xml:space="preserve" text-anchor="middle" x="1364.85" y="-417.83" font-family="Helvetica,sans-Serif" font-size="10.00">armored_warrior</text>
</g>
<!-- senpou_temple&#45;&gt;armored_warrior -->
<g id="edge18" class="edge">
<title>senpou_temple&#45;&gt;armored_warrior</title>
<path fill="none" stroke="black" d="M1221.32,-377.62C1248.13,-385.84 1283.65,-396.74 1312.53,-405.59"/>
<polygon fill="black" stroke="black" points="1311.2,-408.85 1321.79,-408.43 1313.26,-402.15 1311.2,-408.85"/>
</g>
<!-- long_arm_centipede_senun -->
<g id="node20" class="node">
<title>long_arm_centipede_senun</title>
<path fill="#f5f5f5" stroke="#9e9e9e" d="M1452.39,-364.84C1452.39,-364.84 1452.39,-369.82 1452.39,-369.82 1452.39,-372.3 1449.96,-375.29 1447.52,-375.79 1447.52,-375.79 1405.98,-384.33 1405.98,-384.33 1403.54,-384.83 1398.62,-385.33 1396.14,-385.33 1396.14,-385.33 1333.56,-385.33 1333.56,-385.33 1331.07,-385.33 1326.15,-384.83 1323.72,-384.33 1323.72,-384.33 1282.17,-375.79 1282.17,-375.79 1279.74,-375.29 1277.3,-372.3 1277.3,-369.82 1277.3,-369.82 1277.3,-364.84 1277.3,-364.84 1277.3,-362.36 1279.74,-359.37 1282.17,-358.87 1282.17,-358.87 1323.72,-350.33 1323.72,-350.33 1326.15,-349.83 1331.07,-349.33 1333.56,-349.33 1333.56,-349.33 1396.14,-349.33 1396.14,-349.33 1398.62,-349.33 1403.54,-349.83 1405.98,-350.33 1405.98,-350.33 1447.52,-358.87 1447.52,-358.87 1449.96,-359.37 1452.39,-362.36 1452.39,-364.84"/>
<text xml:space="preserve" text-anchor="middle" x="1364.85" y="-363.83" font-family="Helvetica,sans-Serif" font-size="10.00">long_arm_centipede_senun</text>
</g>
<!-- senpou_temple&#45;&gt;long_arm_centipede_senun -->
<g id="edge19" class="edge">
<title>senpou_temple&#45;&gt;long_arm_centipede_senun</title>
<path fill="none" stroke="black" d="M1221.32,-365.77C1234.58,-365.91 1249.98,-366.08 1265.65,-366.25"/>
<polygon fill="black" stroke="black" points="1265.53,-369.75 1275.56,-366.36 1265.6,-362.75 1265.53,-369.75"/>
</g>
<!-- folding_screen_monkeys -->
<g id="node21" class="node">
<title>folding_screen_monkeys</title>
<path fill="#f5f5f5" stroke="#9e9e9e" d="M1656.64,-456.84C1656.64,-456.84 1656.64,-461.82 1656.64,-461.82 1656.64,-464.3 1654.22,-467.33 1651.79,-467.87 1651.79,-467.87 1614.22,-476.25 1614.22,-476.25 1611.79,-476.79 1606.88,-477.33 1604.39,-477.33 1604.39,-477.33 1547.47,-477.33 1547.47,-477.33 1544.99,-477.33 1540.08,-476.79 1537.65,-476.25 1537.65,-476.25 1500.08,-467.87 1500.08,-467.87 1497.65,-467.33 1495.22,-464.3 1495.22,-461.82 1495.22,-461.82 1495.22,-456.84 1495.22,-456.84 1495.22,-454.36 1497.65,-451.33 1500.08,-450.79 1500.08,-450.79 1537.65,-442.41 1537.65,-442.41 1540.08,-441.87 1544.99,-441.33 1547.47,-441.33 1547.47,-441.33 1604.39,-441.33 1604.39,-441.33 1606.88,-441.33 1611.79,-441.87 1614.22,-442.41 1614.22,-442.41 1651.79,-450.79 1651.79,-450.79 1654.22,-451.33 1656.64,-454.36 1656.64,-456.84"/>
<text xml:space="preserve" text-anchor="middle" x="1575.93" y="-455.83" font-family="Helvetica,sans-Serif" font-size="10.00">folding_screen_monkeys</text>
</g>
<!-- senpou_temple&#45;&gt;folding_screen_monkeys -->
<g id="edge20" class="edge">
<title>senpou_temple&#45;&gt;folding_screen_monkeys</title>
<path fill="none" stroke="black" d="M1221.63,-379.58C1228.62,-383.1 1235.5,-387.33 1241.3,-392.33 1263.72,-411.64 1251.6,-433.67 1277.3,-448.33 1347.33,-488.26 1442.44,-483.64 1506.11,-473.92"/>
<polygon fill="black" stroke="black" points="1506.42,-477.41 1515.74,-472.36 1505.31,-470.5 1506.42,-477.41"/>
</g>
<!-- senpou_temple&#45;&gt;sunken_valley -->
<g id="edge59" class="edge">
<title>senpou_temple&#45;&gt;sunken_valley</title>
<path fill="none" stroke="#888888" stroke-dasharray="5,2" d="M1221.32,-353.92C1248.78,-346.1 1285.38,-335.67 1314.62,-327.35"/>
<polygon fill="#888888" stroke="#888888" points="1315.32,-330.79 1323.98,-324.68 1313.4,-324.06 1315.32,-330.79"/>
</g>
<!-- armored_warrior&#45;&gt;folding_screen_monkeys -->
<g id="edge58" class="edge">
<title>armored_warrior&#45;&gt;folding_screen_monkeys</title>
<path fill="none" stroke="#888888" stroke-dasharray="5,2" d="M1416.73,-430.58C1441.8,-435.13 1472.52,-440.72 1500.2,-445.75"/>
<polygon fill="#888888" stroke="#888888" points="1499.5,-449.18 1509.96,-447.52 1500.75,-442.29 1499.5,-449.18"/>
</g>
<!-- mortal_blade -->
<g id="node22" class="node">
<title>mortal_blade</title>
<polygon fill="#f5f5f5" stroke="#9e9e9e" points="1891.04,-474.33 1825.54,-474.33 1825.54,-438.33 1897.04,-438.33 1897.04,-468.33 1891.04,-474.33"/>
<polyline fill="none" stroke="#9e9e9e" points="1891.04,-474.33 1891.04,-468.33"/>
<polyline fill="none" stroke="#9e9e9e" points="1897.04,-468.33 1891.04,-468.33"/>
<text xml:space="preserve" text-anchor="middle" x="1861.29" y="-452.83" font-family="Helvetica,sans-Serif" font-size="10.00">mortal_blade</text>
</g>
<!-- folding_screen_monkeys&#45;&gt;mortal_blade -->
<g id="edge21" class="edge">
<title>folding_screen_monkeys&#45;&gt;mortal_blade</title>
<path fill="none" stroke="black" d="M1657,-458.48C1707.71,-457.95 1771.5,-457.27 1813.97,-456.82"/>
<polygon fill="black" stroke="black" points="1813.87,-460.32 1823.83,-456.72 1813.8,-453.32 1813.87,-460.32"/>
</g>
<!-- gun_fort -->
<g id="node26" class="node">
<title>gun_fort</title>
<path fill="#f5f5f5" stroke="#9e9e9e" d="M1749.48,-431.33C1749.48,-431.33 1719.48,-431.33 1719.48,-431.33 1713.48,-431.33 1707.48,-425.33 1707.48,-419.33 1707.48,-419.33 1707.48,-407.33 1707.48,-407.33 1707.48,-401.33 1713.48,-395.33 1719.48,-395.33 1719.48,-395.33 1749.48,-395.33 1749.48,-395.33 1755.48,-395.33 1761.48,-401.33 1761.48,-407.33 1761.48,-407.33 1761.48,-419.33 1761.48,-419.33 1761.48,-425.33 1755.48,-431.33 1749.48,-431.33"/>
<text xml:space="preserve" text-anchor="middle" x="1734.48" y="-409.83" font-family="Helvetica,sans-Serif" font-size="10.00">gun_fort</text>
</g>
<!-- folding_screen_monkeys&#45;&gt;gun_fort -->
<g id="edge25" class="edge">
<title>folding_screen_monkeys&#45;&gt;gun_fort</title>
<path fill="none" stroke="black" d="M1626.47,-444.78C1648.99,-438.16 1675.2,-430.46 1696.04,-424.33"/>
<polygon fill="black" stroke="black" points="1696.95,-427.71 1705.56,-421.53 1694.98,-421 1696.95,-427.71"/>
</g>
<!-- fountainhead_palace -->
<g id="node32" class="node">
<title>fountainhead_palace</title>
<path fill="#f5f5f5" stroke="#9e9e9e" d="M2046.35,-409.33C2046.35,-409.33 1965.1,-409.33 1965.1,-409.33 1959.1,-409.33 1953.1,-403.33 1953.1,-397.33 1953.1,-397.33 1953.1,-385.33 1953.1,-385.33 1953.1,-379.33 1959.1,-373.33 1965.1,-373.33 1965.1,-373.33 2046.35,-373.33 2046.35,-373.33 2052.35,-373.33 2058.35,-379.33 2058.35,-385.33 2058.35,-385.33 2058.35,-397.33 2058.35,-397.33 2058.35,-403.33 2052.35,-409.33 2046.35,-409.33"/>
<text xml:space="preserve" text-anchor="middle" x="2005.73" y="-387.83" font-family="Helvetica,sans-Serif" font-size="10.00">fountainhead_palace</text>
</g>
<!-- mortal_blade&#45;&gt;fountainhead_palace -->
<g id="edge33" class="edge">
<title>mortal_blade&#45;&gt;fountainhead_palace</title>
<path fill="none" stroke="black" d="M1897.5,-440.26C1914.52,-432.5 1935.27,-423.03 1953.96,-414.5"/>
<polygon fill="black" stroke="black" points="1955.36,-417.7 1963.01,-410.37 1952.46,-411.34 1955.36,-417.7"/>
</g>
<!-- snake_eyes_shirahagi -->
<g id="node24" class="node">
<title>snake_eyes_shirahagi</title>
<path fill="#f5f5f5" stroke="#9e9e9e" d="M1649.32,-364.84C1649.32,-364.84 1649.32,-369.82 1649.32,-369.82 1649.32,-372.3 1646.91,-375.38 1644.49,-375.97 1644.49,-375.97 1611.16,-384.15 1611.16,-384.15 1608.75,-384.74 1603.85,-385.33 1601.36,-385.33 1601.36,-385.33 1550.51,-385.33 1550.51,-385.33 1548.02,-385.33 1543.12,-384.74 1540.71,-384.15 1540.71,-384.15 1507.37,-375.97 1507.37,-375.97 1504.96,-375.38 1502.55,-372.3 1502.55,-369.82 1502.55,-369.82 1502.55,-364.84 1502.55,-364.84 1502.55,-362.36 1504.96,-359.28 1507.37,-358.69 1507.37,-358.69 1540.71,-350.51 1540.71,-350.51 1543.12,-349.92 1548.02,-349.33 1550.51,-349.33 1550.51,-349.33 1601.36,-349.33 1601.36,-349.33 1603.85,-349.33 1608.75,-349.92 1611.16,-350.51 1611.16,-350.51 1644.49,-358.69 1644.49,-358.69 1646.91,-359.28 1649.32,-362.36 1649.32,-364.84"/>
<text xml:space="preserve" text-anchor="middle" x="1575.93" y="-363.83" font-family="Helvetica,sans-Serif" font-size="10.00">snake_eyes_shirahagi</text>
</g>
<!-- sunken_valley&#45;&gt;snake_eyes_shirahagi -->
<g id="edge23" class="edge">
<title>sunken_valley&#45;&gt;snake_eyes_shirahagi</title>
<path fill="none" stroke="black" d="M1404.2,-323.23C1434.75,-331.13 1478.13,-342.33 1513.51,-351.47"/>
<polygon fill="black" stroke="black" points="1512.19,-354.74 1522.75,-353.85 1513.94,-347.96 1512.19,-354.74"/>
</g>
<!-- long_arm_centipede_giraffe -->
<g id="node25" class="node">
<title>long_arm_centipede_giraffe</title>
<path fill="#f5f5f5" stroke="#9e9e9e" d="M1663.48,-310.84C1663.48,-310.84 1663.48,-315.82 1663.48,-315.82 1663.48,-318.3 1661.04,-321.29 1658.61,-321.79 1658.61,-321.79 1617.07,-330.33 1617.07,-330.33 1614.63,-330.83 1609.71,-331.33 1607.23,-331.33 1607.23,-331.33 1544.64,-331.33 1544.64,-331.33 1542.16,-331.33 1537.24,-330.83 1534.8,-330.33 1534.8,-330.33 1493.26,-321.79 1493.26,-321.79 1490.83,-321.29 1488.39,-318.3 1488.39,-315.82 1488.39,-315.82 1488.39,-310.84 1488.39,-310.84 1488.39,-308.36 1490.83,-305.37 1493.26,-304.87 1493.26,-304.87 1534.8,-296.33 1534.8,-296.33 1537.24,-295.83 1542.16,-295.33 1544.64,-295.33 1544.64,-295.33 1607.23,-295.33 1607.23,-295.33 1609.71,-295.33 1614.63,-295.83 1617.07,-296.33 1617.07,-296.33 1658.61,-304.87 1658.61,-304.87 1661.04,-305.37 1663.48,-308.36 1663.48,-310.84"/>
<text xml:space="preserve" text-anchor="middle" x="1575.93" y="-309.83" font-family="Helvetica,sans-Serif" font-size="10.00">long_arm_centipede_giraffe</text>
</g>
<!-- sunken_valley&#45;&gt;long_arm_centipede_giraffe -->
<g id="edge24" class="edge">
<title>sunken_valley&#45;&gt;long_arm_centipede_giraffe</title>
<path fill="none" stroke="black" d="M1404.2,-313.33C1424.74,-313.33 1451.07,-313.33 1476.87,-313.33"/>
<polygon fill="black" stroke="black" points="1476.75,-316.83 1486.75,-313.33 1476.75,-309.83 1476.75,-316.83"/>
</g>
<!-- sunken_valley&#45;&gt;gun_fort -->
<g id="edge26" class="edge">
<title>sunken_valley&#45;&gt;gun_fort</title>
<path fill="none" stroke="black" d="M1404.23,-319.43C1420.28,-323.39 1438.4,-329.86 1452.39,-340.33 1475.48,-357.62 1463.5,-379.75 1488.39,-394.33 1553.47,-432.47 1645.5,-427 1696.25,-419.96"/>
<polygon fill="black" stroke="black" points="1696.46,-423.47 1705.83,-418.53 1695.43,-416.55 1696.46,-423.47"/>
</g>
<!-- sunken_valley&#45;&gt;ashina_depths -->
<g id="edge60" class="edge">
<title>sunken_valley&#45;&gt;ashina_depths</title>
<path fill="none" stroke="#888888" stroke-dasharray="5,2" d="M1404.2,-303.43C1438.17,-294.65 1487.99,-281.78 1525.06,-272.21"/>
<polygon fill="#888888" stroke="#888888" points="1525.85,-275.62 1534.65,-269.73 1524.1,-268.84 1525.85,-275.62"/>
</g>
<!-- guardian_ape -->
<g id="node27" class="node">
<title>guardian_ape</title>
<path fill="#f5f5f5" stroke="#9e9e9e" d="M1909.29,-393.84C1909.29,-393.84 1909.29,-398.82 1909.29,-398.82 1909.29,-401.3 1906.97,-404.66 1904.64,-405.53 1904.64,-405.53 1885.83,-412.58 1885.83,-412.58 1883.5,-413.46 1878.69,-414.33 1876.2,-414.33 1876.2,-414.33 1846.38,-414.33 1846.38,-414.33 1843.89,-414.33 1839.08,-413.46 1836.75,-412.58 1836.75,-412.58 1817.94,-405.53 1817.94,-405.53 1815.62,-404.66 1813.29,-401.3 1813.29,-398.82 1813.29,-398.82 1813.29,-393.84 1813.29,-393.84 1813.29,-391.36 1815.62,-388 1817.94,-387.13 1817.94,-387.13 1836.75,-380.07 1836.75,-380.07 1839.08,-379.2 1843.89,-378.33 1846.38,-378.33 1846.38,-378.33 1876.2,-378.33 1876.2,-378.33 1878.69,-378.33 1883.5,-379.2 1885.83,-380.07 1885.83,-380.07 1904.64,-387.13 1904.64,-387.13 1906.97,-388 1909.29,-391.36 1909.29,-393.84"/>
<text xml:space="preserve" text-anchor="middle" x="1861.29" y="-392.83" font-family="Helvetica,sans-Serif" font-size="10.00">guardian_ape</text>
</g>
<!-- gun_fort&#45;&gt;guardian_ape -->
<g id="edge27" class="edge">
<title>gun_fort&#45;&gt;guardian_ape</title>
<path fill="none" stroke="black" d="M1761.95,-409.72C1773.64,-408.13 1787.88,-406.19 1801.85,-404.29"/>
<polygon fill="black" stroke="black" points="1802.01,-407.8 1811.44,-402.98 1801.06,-400.86 1802.01,-407.8"/>
</g>
<!-- headless_ape -->
<g id="node30" class="node">
<title>headless_ape</title>
<path fill="#f5f5f5" stroke="#9e9e9e" d="M2055.2,-309.84C2055.2,-309.84 2055.2,-314.82 2055.2,-314.82 2055.2,-317.3 2052.86,-320.64 2050.53,-321.49 2050.53,-321.49 2030.89,-328.63 2030.89,-328.63 2028.56,-329.48 2023.73,-330.33 2021.25,-330.33 2021.25,-330.33 1990.21,-330.33 1990.21,-330.33 1987.73,-330.33 1982.9,-329.48 1980.57,-328.63 1980.57,-328.63 1960.93,-321.49 1960.93,-321.49 1958.6,-320.64 1956.26,-317.3 1956.26,-314.82 1956.26,-314.82 1956.26,-309.84 1956.26,-309.84 1956.26,-307.36 1958.6,-304.02 1960.93,-303.17 1960.93,-303.17 1980.57,-296.03 1980.57,-296.03 1982.9,-295.18 1987.73,-294.33 1990.21,-294.33 1990.21,-294.33 2021.25,-294.33 2021.25,-294.33 2023.73,-294.33 2028.56,-295.18 2030.89,-296.03 2030.89,-296.03 2050.53,-303.17 2050.53,-303.17 2052.86,-304.02 2055.2,-307.36 2055.2,-309.84"/>
<text xml:space="preserve" text-anchor="middle" x="2005.73" y="-308.83" font-family="Helvetica,sans-Serif" font-size="10.00">headless_ape</text>
</g>
<!-- guardian_ape&#45;&gt;headless_ape -->
<g id="edge30" class="edge">
<title>guardian_ape&#45;&gt;headless_ape</title>
<path fill="none" stroke="black" d="M1888.75,-380.73C1911.09,-367.55 1943.32,-348.54 1968.14,-333.91"/>
<polygon fill="black" stroke="black" points="1969.79,-337 1976.63,-328.9 1966.24,-330.97 1969.79,-337"/>
</g>
<!-- mibu_village -->
<g id="node29" class="node">
<title>mibu_village</title>
<path fill="#f5f5f5" stroke="#9e9e9e" d="M1757.48,-338.33C1757.48,-338.33 1711.48,-338.33 1711.48,-338.33 1705.48,-338.33 1699.48,-332.33 1699.48,-326.33 1699.48,-326.33 1699.48,-314.33 1699.48,-314.33 1699.48,-308.33 1705.48,-302.33 1711.48,-302.33 1711.48,-302.33 1757.48,-302.33 1757.48,-302.33 1763.48,-302.33 1769.48,-308.33 1769.48,-314.33 1769.48,-314.33 1769.48,-326.33 1769.48,-326.33 1769.48,-332.33 1763.48,-338.33 1757.48,-338.33"/>
<text xml:space="preserve" text-anchor="middle" x="1734.48" y="-316.83" font-family="Helvetica,sans-Serif" font-size="10.00">mibu_village</text>
</g>
<!-- ashina_depths&#45;&gt;mibu_village -->
<g id="edge29" class="edge">
<title>ashina_depths&#45;&gt;mibu_village</title>
<path fill="none" stroke="black" d="M1615.71,-270.07C1630.79,-274.61 1648.11,-280.24 1663.48,-286.33 1671.78,-289.62 1680.46,-293.48 1688.77,-297.39"/>
<polygon fill="black" stroke="black" points="1687.15,-300.49 1697.68,-301.68 1690.19,-294.19 1687.15,-300.49"/>
</g>
<!-- ashina_depths&#45;&gt;headless_ape -->
<g id="edge31" class="edge">
<title>ashina_depths&#45;&gt;headless_ape</title>
<path fill="none" stroke="black" d="M1615.65,-264.13C1690.53,-273.4 1855.63,-293.86 1944.79,-304.9"/>
<polygon fill="black" stroke="black" points="1944.21,-308.36 1954.56,-306.11 1945.07,-301.41 1944.21,-308.36"/>
</g>
<!-- corrupted_monk -->
<g id="node31" class="node">
<title>corrupted_monk</title>
<path fill="#f5f5f5" stroke="#9e9e9e" d="M1917.1,-328.84C1917.1,-328.84 1917.1,-333.82 1917.1,-333.82 1917.1,-336.3 1914.74,-339.55 1912.37,-340.31 1912.37,-340.31 1889.14,-347.8 1889.14,-347.8 1886.78,-348.57 1881.92,-349.33 1879.44,-349.33 1879.44,-349.33 1843.14,-349.33 1843.14,-349.33 1840.66,-349.33 1835.81,-348.57 1833.44,-347.8 1833.44,-347.8 1810.21,-340.31 1810.21,-340.31 1807.84,-339.55 1805.48,-336.3 1805.48,-333.82 1805.48,-333.82 1805.48,-328.84 1805.48,-328.84 1805.48,-326.36 1807.84,-323.11 1810.21,-322.35 1810.21,-322.35 1833.44,-314.86 1833.44,-314.86 1835.81,-314.09 1840.66,-313.33 1843.14,-313.33 1843.14,-313.33 1879.44,-313.33 1879.44,-313.33 1881.92,-313.33 1886.78,-314.09 1889.14,-314.86 1889.14,-314.86 1912.37,-322.35 1912.37,-322.35 1914.74,-323.11 1917.1,-326.36 1917.1,-328.84"/>
<text xml:space="preserve" text-anchor="middle" x="1861.29" y="-327.83" font-family="Helvetica,sans-Serif" font-size="10.00">corrupted_monk</text>
</g>
<!-- mibu_village&#45;&gt;corrupted_monk -->
<g id="edge32" class="edge">
<title>mibu_village&#45;&gt;corrupted_monk</title>
<path fill="none" stroke="black" d="M1769.91,-323.36C1777.45,-324.03 1785.68,-324.75 1794,-325.49"/>
<polygon fill="black" stroke="black" points="1793.57,-328.96 1803.84,-326.35 1794.19,-321.99 1793.57,-328.96"/>
</g>
<!-- corrupted_monk&#45;&gt;fountainhead_palace -->
<g id="edge34" class="edge">
<title>corrupted_monk&#45;&gt;fountainhead_palace</title>
<path fill="none" stroke="black" d="M1896.77,-345.85C1912.88,-352.64 1932.43,-360.88 1950.45,-368.47"/>
<polygon fill="black" stroke="black" points="1948.88,-371.6 1959.45,-372.26 1951.6,-365.15 1948.88,-371.6"/>
</g>
<!-- true_corrupted_monk -->
<g id="node33" class="node">
<title>true_corrupted_monk</title>
<path fill="#f5f5f5" stroke="#9e9e9e" d="M2234.29,-411.84C2234.29,-411.84 2234.29,-416.82 2234.29,-416.82 2234.29,-419.3 2231.89,-422.4 2229.48,-423.02 2229.48,-423.02 2198.12,-431.09 2198.12,-431.09 2195.71,-431.71 2190.82,-432.33 2188.34,-432.33 2188.34,-432.33 2140.31,-432.33 2140.31,-432.33 2137.83,-432.33 2132.94,-431.71 2130.53,-431.09 2130.53,-431.09 2099.17,-423.02 2099.17,-423.02 2096.76,-422.4 2094.35,-419.3 2094.35,-416.82 2094.35,-416.82 2094.35,-411.84 2094.35,-411.84 2094.35,-409.36 2096.76,-406.25 2099.17,-405.64 2099.17,-405.64 2130.53,-397.57 2130.53,-397.57 2132.94,-396.95 2137.83,-396.33 2140.31,-396.33 2140.31,-396.33 2188.34,-396.33 2188.34,-396.33 2190.82,-396.33 2195.71,-396.95 2198.12,-397.57 2198.12,-397.57 2229.48,-405.64 2229.48,-405.64 2231.89,-406.25 2234.29,-409.36 2234.29,-411.84"/>
<text xml:space="preserve" text-anchor="middle" x="2164.32" y="-410.83" font-family="Helvetica,sans-Serif" font-size="10.00">true_corrupted_monk</text>
</g>
<!-- fountainhead_palace&#45;&gt;true_corrupted_monk -->
<g id="edge35" class="edge">
<title>fountainhead_palace&#45;&gt;true_corrupted_monk</title>
<path fill="none" stroke="black" d="M2058.44,-398.92C2068.19,-400.36 2078.56,-401.88 2088.84,-403.39"/>
<polygon fill="black" stroke="black" points="2088.03,-406.81 2098.44,-404.8 2089.05,-399.88 2088.03,-406.81"/>
</g>
<!-- divine_dragon -->
<g id="node34" class="node">
<title>divine_dragon</title>
<path fill="#f5f5f5" stroke="#9e9e9e" d="M2369.23,-388.84C2369.23,-388.84 2369.23,-393.82 2369.23,-393.82 2369.23,-396.3 2366.89,-399.64 2364.56,-400.49 2364.56,-400.49 2344.92,-407.63 2344.92,-407.63 2342.59,-408.48 2337.77,-409.33 2335.28,-409.33 2335.28,-409.33 2304.24,-409.33 2304.24,-409.33 2301.76,-409.33 2296.94,-408.48 2294.6,-407.63 2294.6,-407.63 2274.97,-400.49 2274.97,-400.49 2272.63,-399.64 2270.29,-396.3 2270.29,-393.82 2270.29,-393.82 2270.29,-388.84 2270.29,-388.84 2270.29,-386.36 2272.63,-383.02 2274.97,-382.17 2274.97,-382.17 2294.6,-375.03 2294.6,-375.03 2296.94,-374.18 2301.76,-373.33 2304.24,-373.33 2304.24,-373.33 2335.28,-373.33 2335.28,-373.33 2337.77,-373.33 2342.59,-374.18 2344.92,-375.03 2344.92,-375.03 2364.56,-382.17 2364.56,-382.17 2366.89,-383.02 2369.23,-386.36 2369.23,-388.84"/>
<text xml:space="preserve" text-anchor="middle" x="2319.76" y="-387.83" font-family="Helvetica,sans-Serif" font-size="10.00">divine_dragon</text>
</g>
<!-- fountainhead_palace&#45;&gt;divine_dragon -->
<g id="edge37" class="edge">
<title>fountainhead_palace&#45;&gt;divine_dragon</title>
<path fill="none" stroke="black" d="M2058.61,-388.57C2070.36,-388.05 2082.78,-387.59 2094.35,-387.33 2156.53,-385.91 2172.12,-385.86 2234.29,-387.33 2242.18,-387.52 2250.47,-387.8 2258.65,-388.13"/>
<polygon fill="black" stroke="black" points="2258.44,-391.63 2268.58,-388.57 2258.74,-384.63 2258.44,-391.63"/>
</g>
<!-- true_corrupted_monk&#45;&gt;divine_dragon -->
<g id="edge36" class="edge">
<title>true_corrupted_monk&#45;&gt;divine_dragon</title>
<path fill="none" stroke="black" d="M2228.18,-404.91C2238.28,-403.39 2248.71,-401.83 2258.75,-400.33"/>
<polygon fill="black" stroke="black" points="2259,-403.83 2268.37,-398.88 2257.96,-396.91 2259,-403.83"/>
</g>
<!-- ashina_reservoir_revisited -->
<g id="node35" class="node">
<title>ashina_reservoir_revisited</title>
<path fill="#f5f5f5" stroke="#9e9e9e" d="M2525.2,-451.33C2525.2,-451.33 2419.95,-451.33 2419.95,-451.33 2413.95,-451.33 2407.95,-445.33 2407.95,-439.33 2407.95,-439.33 2407.95,-427.33 2407.95,-427.33 2407.95,-421.33 2413.95,-415.33 2419.95,-415.33 2419.95,-415.33 2525.2,-415.33 2525.2,-415.33 2531.2,-415.33 2537.2,-421.33 2537.2,-427.33 2537.2,-427.33 2537.2,-439.33 2537.2,-439.33 2537.2,-445.33 2531.2,-451.33 2525.2,-451.33"/>
<text xml:space="preserve" text-anchor="middle" x="2472.58" y="-429.83" font-family="Helvetica,sans-Serif" font-size="10.00">ashina_reservoir_revisited</text>
</g>
<!-- divine_dragon&#45;&gt;ashina_reservoir_revisited -->
<g id="edge38" class="edge">
<title>divine_dragon&#45;&gt;ashina_reservoir_revisited</title>
<path fill="none" stroke="black" d="M2360.39,-402.36C2371.59,-405.49 2384.17,-408.99 2396.73,-412.48"/>
<polygon fill="black" stroke="black" points="2395.69,-415.83 2406.26,-415.14 2397.57,-409.09 2395.69,-415.83"/>
</g>
<!-- owl_iron_code_choice -->
<g id="node37" class="node">
<title>owl_iron_code_choice</title>
<ellipse fill="#f5f5f5" stroke="#9e9e9e" cx="2472.58" cy="-364.33" rx="67.35" ry="18"/>
<text xml:space="preserve" text-anchor="middle" x="2472.58" y="-360.83" font-family="Helvetica,sans-Serif" font-size="10.00">owl_iron_code_choice</text>
</g>
<!-- divine_dragon&#45;&gt;owl_iron_code_choice -->
<g id="edge40" class="edge">
<title>divine_dragon&#45;&gt;owl_iron_code_choice</title>
<path fill="none" stroke="black" d="M2367.65,-382.93C2379.31,-380.85 2392.02,-378.57 2404.44,-376.35"/>
<polygon fill="black" stroke="black" points="2405,-379.81 2414.22,-374.6 2403.76,-372.91 2405,-379.81"/>
</g>
<!-- seven_ashina_spears_shikibu -->
<g id="node36" class="node">
<title>seven_ashina_spears_shikibu</title>
<path fill="#f5f5f5" stroke="#9e9e9e" d="M2766.64,-445.84C2766.64,-445.84 2766.64,-450.82 2766.64,-450.82 2766.64,-453.3 2764.2,-456.25 2761.75,-456.71 2761.75,-456.71 2715.66,-465.41 2715.66,-465.41 2713.22,-465.87 2708.29,-466.33 2705.81,-466.33 2705.81,-466.33 2636.76,-466.33 2636.76,-466.33 2634.27,-466.33 2629.34,-465.87 2626.9,-465.41 2626.9,-465.41 2580.81,-456.71 2580.81,-456.71 2578.37,-456.25 2575.93,-453.3 2575.93,-450.82 2575.93,-450.82 2575.93,-445.84 2575.93,-445.84 2575.93,-443.36 2578.37,-440.41 2580.81,-439.95 2580.81,-439.95 2626.9,-431.25 2626.9,-431.25 2629.34,-430.79 2634.27,-430.33 2636.76,-430.33 2636.76,-430.33 2705.81,-430.33 2705.81,-430.33 2708.29,-430.33 2713.22,-430.79 2715.66,-431.25 2715.66,-431.25 2761.75,-439.95 2761.75,-439.95 2764.2,-440.41 2766.64,-443.36 2766.64,-445.84"/>
<text xml:space="preserve" text-anchor="middle" x="2671.28" y="-444.83" font-family="Helvetica,sans-Serif" font-size="10.00">seven_ashina_spears_shikibu</text>
</g>
<!-- ashina_reservoir_revisited&#45;&gt;seven_ashina_spears_shikibu -->
<g id="edge39" class="edge">
<title>ashina_reservoir_revisited&#45;&gt;seven_ashina_spears_shikibu</title>
<path fill="none" stroke="black" d="M2537.44,-438.2C2546.14,-438.86 2555.24,-439.56 2564.43,-440.26"/>
<polygon fill="black" stroke="black" points="2563.92,-443.73 2574.16,-441 2564.45,-436.75 2563.92,-443.73"/>
</g>
<!-- ending_shura -->
<g id="node38" class="node">
<title>ending_shura</title>
<ellipse fill="#f5f5f5" stroke="#9e9e9e" cx="2671.28" cy="-364.33" rx="44.35" ry="44.35"/>
<ellipse fill="none" stroke="#9e9e9e" cx="2671.28" cy="-364.33" rx="48.35" ry="48.35"/>
<text xml:space="preserve" text-anchor="middle" x="2671.28" y="-360.83" font-family="Helvetica,sans-Serif" font-size="10.00">ending_shura</text>
</g>
<!-- owl_iron_code_choice&#45;&gt;ending_shura -->
<g id="edge41" class="edge">
<title>owl_iron_code_choice&#45;&gt;ending_shura</title>
<path fill="none" stroke="black" d="M2540.17,-364.33C2563.24,-364.33 2588.91,-364.33 2611.32,-364.33"/>
<polygon fill="black" stroke="black" points="2611.19,-367.83 2621.19,-364.33 2611.19,-360.83 2611.19,-367.83"/>
</g>
<!-- great_shinobi_owl -->
<g id="node39" class="node">
<title>great_shinobi_owl</title>
<path fill="#f5f5f5" stroke="#9e9e9e" d="M2732.47,-277.84C2732.47,-277.84 2732.47,-282.82 2732.47,-282.82 2732.47,-285.3 2730.08,-288.49 2727.7,-289.19 2727.7,-289.19 2701.39,-296.93 2701.39,-296.93 2699.01,-297.63 2694.14,-298.33 2691.66,-298.33 2691.66,-298.33 2650.91,-298.33 2650.91,-298.33 2648.43,-298.33 2643.56,-297.63 2641.17,-296.93 2641.17,-296.93 2614.87,-289.19 2614.87,-289.19 2612.48,-288.49 2610.1,-285.3 2610.1,-282.82 2610.1,-282.82 2610.1,-277.84 2610.1,-277.84 2610.1,-275.36 2612.48,-272.17 2614.87,-271.47 2614.87,-271.47 2641.17,-263.73 2641.17,-263.73 2643.56,-263.03 2648.43,-262.33 2650.91,-262.33 2650.91,-262.33 2691.66,-262.33 2691.66,-262.33 2694.14,-262.33 2699.01,-263.03 2701.39,-263.73 2701.39,-263.73 2727.7,-271.47 2727.7,-271.47 2730.08,-272.17 2732.47,-275.36 2732.47,-277.84"/>
<text xml:space="preserve" text-anchor="middle" x="2671.28" y="-276.83" font-family="Helvetica,sans-Serif" font-size="10.00">great_shinobi_owl</text>
</g>
<!-- owl_iron_code_choice&#45;&gt;great_shinobi_owl -->
<g id="edge42" class="edge">
<title>owl_iron_code_choice&#45;&gt;great_shinobi_owl</title>
<path fill="none" stroke="black" d="M2499.68,-347.59C2519.88,-335.19 2548.88,-318.56 2575.93,-307.33 2587.25,-302.63 2599.67,-298.44 2611.67,-294.84"/>
<polygon fill="black" stroke="black" points="2612.43,-298.26 2621.07,-292.13 2610.49,-291.54 2612.43,-298.26"/>
</g>
<!-- kuro_aromatic_secret -->
<g id="node40" class="node">
<title>kuro_aromatic_secret</title>
<ellipse fill="#f5f5f5" stroke="#9e9e9e" cx="2887.13" cy="-376.33" rx="66" ry="18"/>
<text xml:space="preserve" text-anchor="middle" x="2887.13" y="-372.83" font-family="Helvetica,sans-Serif" font-size="10.00">kuro_aromatic_secret</text>
</g>
<!-- great_shinobi_owl&#45;&gt;kuro_aromatic_secret -->
<g id="edge43" class="edge">
<title>great_shinobi_owl&#45;&gt;kuro_aromatic_secret</title>
<path fill="none" stroke="black" d="M2722.53,-291.06C2737.17,-295.14 2752.9,-300.51 2766.64,-307.33 2784.55,-316.23 2785.64,-323.79 2802.64,-334.33 2814.93,-341.95 2828.79,-349.36 2841.63,-355.78"/>
<polygon fill="black" stroke="black" points="2839.79,-358.77 2850.31,-360.03 2842.87,-352.48 2839.79,-358.77"/>
</g>
<!-- dragons_homecoming_quest -->
<g id="node44" class="node">
<title>dragons_homecoming_quest</title>
<ellipse fill="#f5f5f5" stroke="#9e9e9e" cx="2887.13" cy="-307.33" rx="84.49" ry="18"/>
<text xml:space="preserve" text-anchor="middle" x="2887.13" y="-303.83" font-family="Helvetica,sans-Serif" font-size="10.00">dragons_homecoming_quest</text>
</g>
<!-- great_shinobi_owl&#45;&gt;dragons_homecoming_quest -->
<g id="edge47" class="edge">
<title>great_shinobi_owl&#45;&gt;dragons_homecoming_quest</title>
<path fill="none" stroke="black" d="M2732.7,-287.96C2754.36,-290.69 2779.17,-293.83 2802.44,-296.76"/>
<polygon fill="black" stroke="black" points="2801.86,-300.22 2812.21,-298 2802.73,-293.27 2801.86,-300.22"/>
</g>
<!-- demon_of_hatred -->
<g id="node45" class="node">
<title>demon_of_hatred</title>
<path fill="#f5f5f5" stroke="#9e9e9e" d="M2946.36,-250.84C2946.36,-250.84 2946.36,-255.82 2946.36,-255.82 2946.36,-258.3 2943.98,-261.51 2941.6,-262.23 2941.6,-262.23 2916.42,-269.88 2916.42,-269.88 2914.04,-270.61 2909.17,-271.33 2906.69,-271.33 2906.69,-271.33 2867.56,-271.33 2867.56,-271.33 2865.08,-271.33 2860.21,-270.61 2857.84,-269.88 2857.84,-269.88 2832.65,-262.23 2832.65,-262.23 2830.27,-261.51 2827.9,-258.3 2827.9,-255.82 2827.9,-255.82 2827.9,-250.84 2827.9,-250.84 2827.9,-248.36 2830.27,-245.15 2832.65,-244.43 2832.65,-244.43 2857.84,-236.78 2857.84,-236.78 2860.21,-236.05 2865.08,-235.33 2867.56,-235.33 2867.56,-235.33 2906.69,-235.33 2906.69,-235.33 2909.17,-235.33 2914.04,-236.05 2916.42,-236.78 2916.42,-236.78 2941.6,-244.43 2941.6,-244.43 2943.98,-245.15 2946.36,-248.36 2946.36,-250.84"/>
<text xml:space="preserve" text-anchor="middle" x="2887.13" y="-249.83" font-family="Helvetica,sans-Serif" font-size="10.00">demon_of_hatred</text>
</g>
<!-- great_shinobi_owl&#45;&gt;demon_of_hatred -->
<g id="edge48" class="edge">
<title>great_shinobi_owl&#45;&gt;demon_of_hatred</title>
<path fill="none" stroke="black" d="M2732.7,-272.7C2758.75,-269.41 2789.36,-265.55 2816.37,-262.14"/>
<polygon fill="black" stroke="black" points="2816.71,-265.62 2826.2,-260.9 2815.84,-258.68 2816.71,-265.62"/>
</g>
<!-- isshin_sword_saint -->
<g id="node46" class="node">
<title>isshin_sword_saint</title>
<path fill="#f5f5f5" stroke="#9e9e9e" d="M2951.73,-174.84C2951.73,-174.84 2951.73,-179.82 2951.73,-179.82 2951.73,-182.3 2949.33,-185.45 2946.94,-186.12 2946.94,-186.12 2918.67,-194 2918.67,-194 2916.28,-194.66 2911.4,-195.33 2908.91,-195.33 2908.91,-195.33 2865.34,-195.33 2865.34,-195.33 2862.85,-195.33 2857.97,-194.66 2855.58,-194 2855.58,-194 2827.31,-186.12 2827.31,-186.12 2824.92,-185.45 2822.53,-182.3 2822.53,-179.82 2822.53,-179.82 2822.53,-174.84 2822.53,-174.84 2822.53,-172.36 2824.92,-169.21 2827.31,-168.54 2827.31,-168.54 2855.58,-160.66 2855.58,-160.66 2857.97,-160 2862.85,-159.33 2865.34,-159.33 2865.34,-159.33 2908.91,-159.33 2908.91,-159.33 2911.4,-159.33 2916.28,-160 2918.67,-160.66 2918.67,-160.66 2946.94,-168.54 2946.94,-168.54 2949.33,-169.21 2951.73,-172.36 2951.73,-174.84"/>
<text xml:space="preserve" text-anchor="middle" x="2887.13" y="-173.83" font-family="Helvetica,sans-Serif" font-size="10.00">isshin_sword_saint</text>
</g>
<!-- great_shinobi_owl&#45;&gt;isshin_sword_saint -->
<g id="edge49" class="edge">
<title>great_shinobi_owl&#45;&gt;isshin_sword_saint</title>
<path fill="none" stroke="black" d="M2705.23,-264.46C2741.98,-246.76 2801.6,-218.04 2842.27,-198.45"/>
<polygon fill="black" stroke="black" points="2843.58,-201.71 2851.07,-194.21 2840.55,-195.4 2843.58,-201.71"/>
</g>
<!-- hirata_estate_revisited -->
<g id="node41" class="node">
<title>hirata_estate_revisited</title>
<path fill="#f5f5f5" stroke="#9e9e9e" d="M3139.42,-410.33C3139.42,-410.33 3049.17,-410.33 3049.17,-410.33 3043.17,-410.33 3037.17,-404.33 3037.17,-398.33 3037.17,-398.33 3037.17,-386.33 3037.17,-386.33 3037.17,-380.33 3043.17,-374.33 3049.17,-374.33 3049.17,-374.33 3139.42,-374.33 3139.42,-374.33 3145.42,-374.33 3151.42,-380.33 3151.42,-386.33 3151.42,-386.33 3151.42,-398.33 3151.42,-398.33 3151.42,-404.33 3145.42,-410.33 3139.42,-410.33"/>
<text xml:space="preserve" text-anchor="middle" x="3094.3" y="-388.83" font-family="Helvetica,sans-Serif" font-size="10.00">hirata_estate_revisited</text>
</g>
<!-- kuro_aromatic_secret&#45;&gt;hirata_estate_revisited -->
<g id="edge44" class="edge">
<title>kuro_aromatic_secret&#45;&gt;hirata_estate_revisited</title>
<path fill="none" stroke="black" d="M2951.08,-381.24C2974.67,-383.08 3001.57,-385.18 3025.57,-387.05"/>
<polygon fill="black" stroke="black" points="3024.99,-390.51 3035.23,-387.8 3025.53,-383.53 3024.99,-390.51"/>
</g>
<!-- owl_father -->
<g id="node42" class="node">
<title>owl_father</title>
<path fill="#f5f5f5" stroke="#9e9e9e" d="M3296.39,-312.84C3296.39,-312.84 3296.39,-317.82 3296.39,-317.82 3296.39,-320.3 3294.13,-323.81 3291.86,-324.84 3291.86,-324.84 3277.66,-331.28 3277.66,-331.28 3275.39,-332.3 3270.65,-333.33 3268.16,-333.33 3268.16,-333.33 3245.21,-333.33 3245.21,-333.33 3242.72,-333.33 3237.98,-332.3 3235.71,-331.28 3235.71,-331.28 3221.51,-324.84 3221.51,-324.84 3219.24,-323.81 3216.98,-320.3 3216.98,-317.82 3216.98,-317.82 3216.98,-312.84 3216.98,-312.84 3216.98,-310.36 3219.24,-306.85 3221.51,-305.82 3221.51,-305.82 3235.71,-299.38 3235.71,-299.38 3237.98,-298.36 3242.72,-297.33 3245.21,-297.33 3245.21,-297.33 3268.16,-297.33 3268.16,-297.33 3270.65,-297.33 3275.39,-298.36 3277.66,-299.38 3277.66,-299.38 3291.86,-305.82 3291.86,-305.82 3294.13,-306.85 3296.39,-310.36 3296.39,-312.84"/>
<text xml:space="preserve" text-anchor="middle" x="3256.69" y="-311.83" font-family="Helvetica,sans-Serif" font-size="10.00">owl_father</text>
</g>
<!-- hirata_estate_revisited&#45;&gt;owl_father -->
<g id="edge45" class="edge">
<title>hirata_estate_revisited&#45;&gt;owl_father</title>
<path fill="none" stroke="black" d="M3151.5,-377.15C3161.51,-373.74 3171.7,-369.78 3180.98,-365.33 3196.6,-357.83 3212.73,-347.43 3225.98,-338.05"/>
<polygon fill="black" stroke="black" points="3227.81,-341.05 3233.85,-332.35 3223.7,-335.39 3227.81,-341.05"/>
</g>
<!-- everblossom -->
<g id="node43" class="node">
<title>everblossom</title>
<polygon fill="#f5f5f5" stroke="#9e9e9e" points="3397.89,-256.33 3332.39,-256.33 3332.39,-220.33 3403.89,-220.33 3403.89,-250.33 3397.89,-256.33"/>
<polyline fill="none" stroke="#9e9e9e" points="3397.89,-256.33 3397.89,-250.33"/>
<polyline fill="none" stroke="#9e9e9e" points="3403.89,-250.33 3397.89,-250.33"/>
<text xml:space="preserve" text-anchor="middle" x="3368.14" y="-234.83" font-family="Helvetica,sans-Serif" font-size="10.00">everblossom</text>
</g>
<!-- owl_father&#45;&gt;everblossom -->
<g id="edge46" class="edge">
<title>owl_father&#45;&gt;everblossom</title>
<path fill="none" stroke="black" d="M3279.57,-299.93C3294.52,-289.42 3314.66,-275.25 3331.85,-263.15"/>
<polygon fill="black" stroke="black" points="3333.65,-266.17 3339.81,-257.55 3329.62,-260.45 3333.65,-266.17"/>
</g>
<!-- ending_purification -->
<g id="node48" class="node">
<title>ending_purification</title>
<ellipse fill="#f5f5f5" stroke="#9e9e9e" cx="3502.22" cy="-62.33" rx="58.33" ry="58.33"/>
<ellipse fill="none" stroke="#9e9e9e" cx="3502.22" cy="-62.33" rx="62.33" ry="62.33"/>
<text xml:space="preserve" text-anchor="middle" x="3502.22" y="-58.83" font-family="Helvetica,sans-Serif" font-size="10.00">ending_purification</text>
</g>
<!-- everblossom&#45;&gt;ending_purification -->
<g id="edge51" class="edge">
<title>everblossom&#45;&gt;ending_purification</title>
<path fill="none" stroke="black" d="M3382.78,-220.16C3400.2,-196.94 3431.21,-155.62 3457.13,-121.08"/>
<polygon fill="black" stroke="black" points="3459.83,-123.31 3463.04,-113.21 3454.23,-119.11 3459.83,-123.31"/>
</g>
<!-- ending_return -->
<g id="node49" class="node">
<title>ending_return</title>
<ellipse fill="#f5f5f5" stroke="#9e9e9e" cx="3094.3" cy="-307.33" rx="44.8" ry="44.8"/>
<ellipse fill="none" stroke="#9e9e9e" cx="3094.3" cy="-307.33" rx="48.8" ry="48.8"/>
<text xml:space="preserve" text-anchor="middle" x="3094.3" y="-303.83" font-family="Helvetica,sans-Serif" font-size="10.00">ending_return</text>
</g>
<!-- dragons_homecoming_quest&#45;&gt;ending_return -->
<g id="edge53" class="edge">
<title>dragons_homecoming_quest&#45;&gt;ending_return</title>
<path fill="none" stroke="black" d="M2971.87,-307.33C2992.62,-307.33 3014.42,-307.33 3033.74,-307.33"/>
<polygon fill="black" stroke="black" points="3033.6,-310.83 3043.6,-307.33 3033.6,-303.83 3033.6,-310.83"/>
</g>
<!-- ending_immortal_severance -->
<g id="node47" class="node">
<title>ending_immortal_severance</title>
<ellipse fill="#f5f5f5" stroke="#9e9e9e" cx="3094.3" cy="-154.33" rx="82.68" ry="82.68"/>
<ellipse fill="none" stroke="#9e9e9e" cx="3094.3" cy="-154.33" rx="86.68" ry="86.68"/>
<text xml:space="preserve" text-anchor="middle" x="3094.3" y="-150.83" font-family="Helvetica,sans-Serif" font-size="10.00">ending_immortal_severance</text>
</g>
<!-- isshin_sword_saint&#45;&gt;ending_immortal_severance -->
<g id="edge50" class="edge">
<title>isshin_sword_saint&#45;&gt;ending_immortal_severance</title>
<path fill="none" stroke="black" d="M2952.2,-170.15C2966.25,-168.57 2981.44,-166.87 2996.45,-165.19"/>
<polygon fill="black" stroke="black" points="2996.83,-168.67 3006.38,-164.07 2996.05,-161.71 2996.83,-168.67"/>
</g>
<!-- isshin_sword_saint&#45;&gt;ending_purification -->
<g id="edge52" class="edge">
<title>isshin_sword_saint&#45;&gt;ending_purification</title>
<path fill="none" stroke="black" d="M2899.35,-159.27C2917.88,-131.37 2957.82,-78.89 3007.61,-58.33 3148.33,-0.21 3331.45,-24.68 3430.36,-45.1"/>
<polygon fill="black" stroke="black" points="3429.42,-48.48 3439.93,-47.13 3430.87,-41.64 3429.42,-48.48"/>
</g>
<!-- isshin_sword_saint&#45;&gt;ending_return -->
<g id="edge54" class="edge">
<title>isshin_sword_saint&#45;&gt;ending_return</title>
<path fill="none" stroke="black" d="M2918.13,-194.38C2934.13,-203.62 2954.09,-215.36 2971.61,-226.33 2987.91,-236.53 2991.61,-239.67 3007.61,-250.33 3019.35,-258.14 3031.99,-266.56 3043.86,-274.46"/>
<polygon fill="black" stroke="black" points="3041.66,-277.2 3051.93,-279.82 3045.54,-271.37 3041.66,-277.2"/>
</g>
</g>
</svg>
