<?xml version="1.0" encoding="UTF-8" standalone="no"?>
<!DOCTYPE svg PUBLIC "-//W3C//DTD SVG 1.1//EN"
 "http://www.w3.org/Graphics/SVG/1.1/DTD/svg11.dtd">
<!-- Generated by graphviz version 15.0.0 (20260523.1842)
 -->
<!-- Title: sekiro Pages: 1 -->
<svg width="593pt" height="229pt"
 viewBox="0.00 0.00 593.00 229.00" xmlns="http://www.w3.org/2000/svg" xmlns:xlink="http://www.w3.org/1999/xlink">
<g id="graph0" class="graph" transform="scale(1 1) rotate(0) translate(4 225)">
<title>sekiro</title>
<polygon fill="white" stroke="none" points="-4,4 -4,-225 589.18,-225 589.18,4 -4,4"/>
<!-- prologue_genichiro -->
<g id="node1" class="node">
<title>prologue_genichiro</title>
<ellipse fill="#c8e6c9" stroke="#2e7d32" cx="58.33" cy="-149" rx="58.33" ry="18"/>
<text xml:space="preserve" text-anchor="middle" x="58.33" y="-145.5" font-family="Helvetica,sans-Serif" font-size="10.00">prologue_genichiro</text>
</g>
<!-- lose_arm -->
<g id="node2" class="node">
<title>lose_arm</title>
<ellipse fill="#c8e6c9" stroke="#2e7d32" cx="186.18" cy="-149" rx="33.52" ry="18"/>
<text xml:space="preserve" text-anchor="middle" x="186.18" y="-145.5" font-family="Helvetica,sans-Serif" font-size="10.00">lose_arm</text>
</g>
<!-- prologue_genichiro&#45;&gt;lose_arm -->
<g id="edge1" class="edge">
<title>prologue_genichiro&#45;&gt;lose_arm</title>
<path fill="none" stroke="black" d="M117.1,-149C125.17,-149 133.35,-149 141.11,-149"/>
<polygon fill="black" stroke="black" points="140.98,-152.5 150.98,-149 140.98,-145.5 140.98,-152.5"/>
</g>
<!-- shinobi_prosthetic -->
<g id="node3" class="node">
<title>shinobi_prosthetic</title>
<polygon fill="#c8e6c9" stroke="#2e7d32" points="344.46,-221 255.71,-221 255.71,-185 350.46,-185 350.46,-215 344.46,-221"/>
<polyline fill="none" stroke="#2e7d32" points="344.46,-221 344.46,-215"/>
<polyline fill="none" stroke="#2e7d32" points="350.46,-215 344.46,-215"/>
<text xml:space="preserve" text-anchor="middle" x="303.08" y="-199.5" font-family="Helvetica,sans-Serif" font-size="10.00">shinobi_prosthetic</text>
</g>
<!-- lose_arm&#45;&gt;shinobi_prosthetic -->
<g id="edge2" class="edge">
<title>lose_arm&#45;&gt;shinobi_prosthetic</title>
<path fill="none" stroke="black" d="M212.12,-160.72C224.01,-166.31 238.68,-173.2 252.7,-179.79"/>
<polygon fill="black" stroke="black" points="250.83,-182.78 261.37,-183.87 253.81,-176.45 250.83,-182.78"/>
</g>
<!-- kusabimaru -->
<g id="node4" class="node">
<title>kusabimaru</title>
<polygon fill="#c8e6c9" stroke="#2e7d32" points="330.21,-167 269.96,-167 269.96,-131 336.21,-131 336.21,-161 330.21,-167"/>
<polyline fill="none" stroke="#2e7d32" points="330.21,-167 330.21,-161"/>
<polyline fill="none" stroke="#2e7d32" points="336.21,-161 330.21,-161"/>
<text xml:space="preserve" text-anchor="middle" x="303.08" y="-145.5" font-family="Helvetica,sans-Serif" font-size="10.00">kusabimaru</text>
</g>
<!-- lose_arm&#45;&gt;kusabimaru -->
<g id="edge3" class="edge">
<title>lose_arm&#45;&gt;kusabimaru</title>
<path fill="none" stroke="black" d="M220.11,-149C231.99,-149 245.59,-149 258.26,-149"/>
<polygon fill="black" stroke="black" points="258.04,-152.5 268.04,-149 258.04,-145.5 258.04,-152.5"/>
</g>
<!-- ashina_outskirts -->
<g id="node5" class="node">
<title>ashina_outskirts</title>
<path fill="#c8e6c9" stroke="#2e7d32" d="M334.71,-113C334.71,-113 271.46,-113 271.46,-113 265.46,-113 259.46,-107 259.46,-101 259.46,-101 259.46,-89 259.46,-89 259.46,-83 265.46,-77 271.46,-77 271.46,-77 334.71,-77 334.71,-77 340.71,-77 346.71,-83 346.71,-89 346.71,-89 346.71,-101 346.71,-101 346.71,-107 340.71,-113 334.71,-113"/>
<text xml:space="preserve" text-anchor="middle" x="303.08" y="-91.5" font-family="Helvetica,sans-Serif" font-size="10.00">ashina_outskirts</text>
</g>
<!-- lose_arm&#45;&gt;ashina_outskirts -->
<g id="edge4" class="edge">
<title>lose_arm&#45;&gt;ashina_outskirts</title>
<path fill="none" stroke="black" d="M212.12,-137.28C224.01,-131.69 238.68,-124.8 252.7,-118.21"/>
<polygon fill="black" stroke="black" points="253.81,-121.55 261.37,-114.13 250.83,-115.22 253.81,-121.55"/>
</g>
<!-- chained_ogre -->
<g id="node6" class="node">
<title>chained_ogre</title>
<path fill="#c8e6c9" stroke="#2e7d32" d="M482.46,-161.51C482.46,-161.51 482.46,-166.49 482.46,-166.49 482.46,-168.97 480.14,-172.33 477.81,-173.2 477.81,-173.2 459,-180.25 459,-180.25 456.67,-181.13 451.86,-182 449.37,-182 449.37,-182 419.55,-182 419.55,-182 417.06,-182 412.25,-181.13 409.92,-180.25 409.92,-180.25 391.11,-173.2 391.11,-173.2 388.79,-172.33 386.46,-168.97 386.46,-166.49 386.46,-166.49 386.46,-161.51 386.46,-161.51 386.46,-159.03 388.79,-155.67 391.11,-154.8 391.11,-154.8 409.92,-147.75 409.92,-147.75 412.25,-146.87 417.06,-146 419.55,-146 419.55,-146 449.37,-146 449.37,-146 451.86,-146 456.67,-146.87 459,-147.75 459,-147.75 477.81,-154.8 477.81,-154.8 480.14,-155.67 482.46,-159.03 482.46,-161.51"/>
<text xml:space="preserve" text-anchor="middle" x="434.46" y="-160.5" font-family="Helvetica,sans-Serif" font-size="10.00">chained_ogre</text>
</g>
<!-- ashina_outskirts&#45;&gt;chained_ogre -->
<g id="edge5" class="edge">
<title>ashina_outskirts&#45;&gt;chained_ogre</title>
<path fill="none" stroke="black" d="M338.75,-113.49C356.27,-122.83 377.57,-134.19 395.52,-143.77"/>
<polygon fill="black" stroke="black" points="393.85,-146.84 404.32,-148.46 397.14,-140.66 393.85,-146.84"/>
</g>
<!-- gyoubu_oniwa -->
<g id="node7" class="node">
<title>gyoubu_oniwa</title>
<path fill="#ffe0b2" stroke="#ef6c00" d="M585.18,-138.51C585.18,-138.51 585.18,-143.49 585.18,-143.49 585.18,-145.97 582.99,-149.64 580.81,-150.82 580.81,-150.82 570.01,-156.64 570.01,-156.64 567.83,-157.82 563.15,-159 560.67,-159 560.67,-159 542.98,-159 542.98,-159 540.49,-159 535.82,-157.82 533.63,-156.64 533.63,-156.64 522.84,-150.82 522.84,-150.82 520.65,-149.64 518.46,-145.97 518.46,-143.49 518.46,-143.49 518.46,-138.51 518.46,-138.51 518.46,-136.03 520.65,-132.36 522.84,-131.18 522.84,-131.18 533.63,-125.36 533.63,-125.36 535.82,-124.18 540.49,-123 542.98,-123 542.98,-123 560.67,-123 560.67,-123 563.15,-123 567.83,-124.18 570.01,-125.36 570.01,-125.36 580.81,-131.18 580.81,-131.18 582.99,-132.36 585.18,-136.03 585.18,-138.51"/>
<text xml:space="preserve" text-anchor="middle" x="551.82" y="-137.5" font-family="Helvetica,sans-Serif" font-size="10.00">? (boss)</text>
</g>
<!-- ashina_outskirts&#45;&gt;gyoubu_oniwa -->
<g id="edge6" class="edge">
<title>ashina_outskirts&#45;&gt;gyoubu_oniwa</title>
<path fill="none" stroke="black" d="M347.06,-103.01C391.9,-111.37 461.83,-124.41 506.98,-132.83"/>
<polygon fill="black" stroke="black" points="506.22,-136.24 516.69,-134.64 507.5,-129.36 506.22,-136.24"/>
</g>
<!-- headless -->
<g id="node8" class="node">
<title>headless</title>
<path fill="#ffe0b2" stroke="#ef6c00" d="M467.82,-69.51C467.82,-69.51 467.82,-74.49 467.82,-74.49 467.82,-76.97 465.63,-80.64 463.44,-81.82 463.44,-81.82 452.65,-87.64 452.65,-87.64 450.47,-88.82 445.79,-90 443.31,-90 443.31,-90 425.61,-90 425.61,-90 423.13,-90 418.46,-88.82 416.27,-87.64 416.27,-87.64 405.48,-81.82 405.48,-81.82 403.29,-80.64 401.1,-76.97 401.1,-74.49 401.1,-74.49 401.1,-69.51 401.1,-69.51 401.1,-67.03 403.29,-63.36 405.48,-62.18 405.48,-62.18 416.27,-56.36 416.27,-56.36 418.46,-55.18 423.13,-54 425.61,-54 425.61,-54 443.31,-54 443.31,-54 445.79,-54 450.47,-55.18 452.65,-56.36 452.65,-56.36 463.44,-62.18 463.44,-62.18 465.63,-63.36 467.82,-67.03 467.82,-69.51"/>
<text xml:space="preserve" text-anchor="middle" x="434.46" y="-68.5" font-family="Helvetica,sans-Serif" font-size="10.00">? (boss)</text>
</g>
<!-- ashina_outskirts&#45;&gt;headless -->
<g id="edge7" class="edge">
<title>ashina_outskirts&#45;&gt;headless</title>
<path fill="none" stroke="black" d="M347.16,-87.34C360.83,-84.91 375.95,-82.22 389.67,-79.78"/>
<polygon fill="black" stroke="black" points="390.08,-83.27 399.31,-78.07 388.85,-76.38 390.08,-83.27"/>
</g>
<!-- hirata_estate -->
<g id="node9" class="node">
<title>hirata_estate</title>
<path fill="#ffe0b2" stroke="#ef6c00" d="M449.46,-36C449.46,-36 419.46,-36 419.46,-36 413.46,-36 407.46,-30 407.46,-24 407.46,-24 407.46,-12 407.46,-12 407.46,-6 413.46,0 419.46,0 419.46,0 449.46,0 449.46,0 455.46,0 461.46,-6 461.46,-12 461.46,-12 461.46,-24 461.46,-24 461.46,-30 455.46,-36 449.46,-36"/>
<text xml:space="preserve" text-anchor="middle" x="434.46" y="-14.5" font-family="Helvetica,sans-Serif" font-size="10.00">? (area)</text>
</g>
<!-- ashina_outskirts&#45;&gt;hirata_estate -->
<g id="edge8" class="edge">
<title>ashina_outskirts&#45;&gt;hirata_estate</title>
<path fill="none" stroke="black" d="M334.11,-76.54C349.67,-67.03 369.03,-55.29 386.46,-45 389.99,-42.92 393.68,-40.76 397.37,-38.61"/>
<polygon fill="black" stroke="black" points="398.83,-41.82 405.73,-33.78 395.33,-35.75 398.83,-41.82"/>
</g>
<!-- chained_ogre&#45;&gt;gyoubu_oniwa -->
<g id="edge9" class="edge">
<title>chained_ogre&#45;&gt;gyoubu_oniwa</title>
<path fill="none" stroke="#888888" stroke-dasharray="5,2" d="M479.73,-155.17C488.76,-153.37 498.25,-151.48 507.25,-149.69"/>
<polygon fill="#888888" stroke="#888888" points="507.71,-153.17 516.83,-147.78 506.34,-146.3 507.71,-153.17"/>
</g>
</g>
</svg>
